<?xml version="1.0" standalone="no"?>
<!DOCTYPE svg PUBLIC "-//W3C//DTD SVG 1.1//EN" "http://www.w3.org/Graphics/SVG/1.1/DTD/svg11.dtd" >
<svg xmlns="http://www.w3.org/2000/svg" xmlns:xlink="http://www.w3.org/1999/xlink" version="1.1">
<metadata></metadata>
<defs>
<font id="orpheus_proregular" horiz-adv-x="1634" >
<font-face units-per-em="2048" ascent="1581" descent="-467" />
<missing-glyph horiz-adv-x="512" />
<glyph unicode="&#xfb01;" horiz-adv-x="911" d="M59 -4v10q51 9 70 41q18 30 18 146v739h-34v6l34 35q0 202 27 319q27 118 123 199q95 80 207 80q57 0 143 -45q51 -25 87 -83t46 -136l-121 -43q-10 128 -65 194t-127 66q-51 0 -89.5 -21.5t-58.5 -54.5q-19 -32 -28 -90q-12 -96 -12 -221v-164h124q39 0 46 10h10 q0 -6 -2 -55t-2 -72h-9q0 48 -15.5 62t-68.5 14h-83v-739q0 -116 18 -146q19 -32 70 -41v-10q-154 8 -308 0zM545 -4v10q49 8 69 41q19 32 19 146v614q0 61 -11 80t-53 31v10q116 9 195 45v-780q0 -116 18 -146q19 -32 70 -41v-10q-153 8 -307 0z" />
<glyph unicode="&#xfb02;" horiz-adv-x="925" d="M59 -4v10q51 9 70 41q18 30 18 146v739h-34v6l34 35q0 202 27 319q27 118 123 199q95 80 207 80q72 0 149 -45q58 11 115 35v-1368q0 -116 18 -146q19 -32 70 -41v-10q-153 8 -307 0v10q49 8 69 41q19 32 19 146v1122q0 101 -52 158t-128 57q-74 0 -126 -75t-52 -181 v-301h124q39 0 46 10h10q0 -6 -2 -55t-2 -72h-9q0 48 -15.5 62t-68.5 14h-83v-739q0 -116 18 -146q19 -32 70 -41v-10q-154 8 -308 0z" />
<glyph unicode="&#xfb03;" horiz-adv-x="1390" d="M59 -4v10q51 9 70 41q18 30 18 146v739h-34v6l34 35q0 156 31.5 258.5t118.5 177.5q95 80 207 80q120 0 194 -92q30 52 78 94q95 80 207 80q57 0 143 -45q51 -25 87.5 -83t46.5 -136l-121 -43q-10 128 -65.5 194t-127.5 66q-51 0 -89 -21.5t-58 -54.5q-20 -34 -29 -90 q-12 -96 -12 -221v-164h125q38 0 45 10h10q0 -6 -2 -55t-2 -72h-8q0 48 -15.5 62t-68.5 14h-84v-739q0 -116 18 -146q19 -32 70 -41v-10q-154 8 -307 0v10q49 8 69 41q19 32 19 146v739h-348v-739q0 -116 18 -146q19 -32 70 -41v-10q-154 8 -308 0zM279 973h348 q0 227 30 332q-35 147 -176 147q-202 0 -202 -403v-76zM1024 -4v10q51 9 70 41q18 30 18 146v614q0 61 -10.5 80t-52.5 31v10q115 9 194 45v-780q0 -114 19 -146q20 -33 69 -41v-10q-153 8 -307 0z" />
<glyph unicode="&#xfb04;" horiz-adv-x="1404" d="M59 -4v10q51 9 70 41q18 30 18 146v739h-34v6l34 35q0 156 31.5 258.5t118.5 177.5q95 80 207 80q121 0 192 -92q24 45 80 94q95 80 207 80q73 0 150 -45q56 10 114 35v-1368q0 -114 19 -146q20 -33 69 -41v-10q-153 8 -307 0v10q51 9 70 41q18 30 18 146v1122 q0 101 -52 158t-128 57q-74 0 -126 -75t-52 -181v-301h125q38 0 45 10h10q0 -6 -2 -55t-2 -72h-8q0 48 -15.5 62t-68.5 14h-84v-739q0 -116 18 -146q19 -32 70 -41v-10q-154 8 -307 0v10q49 8 69 41q19 32 19 146v739h-348v-739q0 -116 18 -146q19 -32 70 -41v-10 q-154 8 -308 0zM279 973h348q0 224 30 332q-35 147 -176 147q-202 0 -202 -403v-76z" />
<glyph horiz-adv-x="0" />
<glyph horiz-adv-x="682" />
<glyph horiz-adv-x="0" />
<glyph horiz-adv-x="0" />
<glyph unicode="&#xd;" horiz-adv-x="0" />
<glyph unicode=" "  horiz-adv-x="512" />
<glyph unicode="&#x09;" horiz-adv-x="512" />
<glyph unicode="&#xa0;" horiz-adv-x="512" />
<glyph unicode="!" horiz-adv-x="448" d="M141 1362q0 123 84 123q86 0 86 -123q0 -248 -20 -465q-12 -129 -27.5 -258t-25 -199t-9.5 -86h-14q0 33 -18 174q-21 166 -37 369q-19 241 -19 465zM147 63q0 32 21.5 55t50.5 23q35 0 56.5 -21.5t21.5 -56.5q0 -29 -23 -50t-55 -21q-29 0 -50.5 21t-21.5 50z" />
<glyph unicode="&#x22;" horiz-adv-x="438" d="M76 1561h102l-14 -236l-10 -170h-56l-10 170zM260 1561h102l-14 -236l-10 -170h-55l-11 170z" />
<glyph unicode="#" horiz-adv-x="2471" d="M106 -4v10q65 24 84 53q40 58 46 367q4 208 4 641v453h14l1159 -1289v183q0 782 -20 913q-15 104 -68 131q-14 10 -47 19q-2 2 -6 2v10q176 -9 344 0v-10q-66 -20 -88 -49q-40 -58 -49 -351q-4 -218 -4 -653v-471h-11l-1163 1294v-184q0 -765 18 -897q15 -111 66 -139 q13 -8 57 -23v-10q-118 4 -174 4q-48 0 -162 -4zM1634 831q0 190 113 291q115 103 270 103q156 0 267 -105q112 -103 112 -289q0 -174 -108 -276t-267 -102q-183 0 -285 94t-102 284zM1710 266v41h594v-41h-594zM1786 815q0 -169 52.5 -249.5t174.5 -80.5q126 0 178 88.5 t52 272.5q0 177 -55.5 260.5t-182.5 83.5q-219 0 -219 -375z" />
<glyph unicode="$" horiz-adv-x="942" d="M100 211q0 71 25 129h10q-4 -50 -4 -51q0 -119 94 -189q92 -69 228 -69h6v661q-168 113 -226 174q-116 122 -116 287q0 156 94 254q94 102 248 111v79h41v-77q55 -3 145 -19q80 -14 123 -14q27 0 35 2q-6 -65 -6 -135q0 -93 2 -113h-13q-46 236 -286 236v-590 q160 -111 219 -166q141 -138 141 -326q0 -168 -99 -279.5t-261 -131.5v-88h-41v84h-25q-78 0 -162 20q-88 18 -133 18q-22 0 -30 -2q2 6 2 54q0 15 -5.5 69t-5.5 72zM250 1245q0 -99 51.5 -175.5t157.5 -154.5v560q-96 -12 -152.5 -71t-56.5 -159zM500 33q103 14 167 86.5 t64 187.5q0 76 -28.5 139.5t-76.5 113t-126 104.5v-631z" />
<glyph unicode="%" horiz-adv-x="1781" d="M74 1165q0 172 108 283q110 113 277 113t274 -113q109 -112 109 -283q0 -159 -105 -270t-274 -111q-183 0 -286 101t-103 280zM205 1151q0 -348 252 -348q154 0 207 121q45 103 45 254q0 362 -260 362q-244 0 -244 -389zM356 0l1006 1571h63l-1005 -1571h-64zM944 360 q0 171 109 283q110 113 276 113q168 0 275 -113q108 -111 108 -283q0 -160 -104 -270t-275 -110q-183 0 -286 100.5t-103 279.5zM1075 346q0 -348 252 -348q154 0 207 121q45 103 45 254q0 362 -260 362q-244 0 -244 -389z" />
<glyph unicode="&#x26;" horiz-adv-x="1296" d="M49 358q0 86 53 166q49 76 109 127q53 42 145 103q-131 204 -131 368q0 161 86 250q86 92 201 92q103 0 169.5 -66t66.5 -196q0 -200 -244 -391l10 -14q46 -79 154 -222q114 -150 239 -278q54 123 54 268q0 86 -24.5 132t-82.5 71v6q51 0 81 23.5t30 62.5h6 q69 -87 69 -221q0 -194 -104 -371q237 -231 383 -231v-6q-41 -35 -109 -35q-183 0 -360 151q-151 -167 -373 -167q-176 0 -301 104q-127 109 -127 274zM213 422q0 -168 102 -262q105 -97 244 -97q158 0 264 109q-131 122 -278 320q-101 131 -166 227q-166 -132 -166 -297z M350 1217q0 -141 133 -371q156 138 156 346q0 102 -44.5 163.5t-107.5 61.5q-60 0 -98.5 -51t-38.5 -149z" />
<glyph unicode="'" horiz-adv-x="253" d="M76 1561h102l-14 -236l-10 -170h-56l-10 170z" />
<glyph unicode="(" horiz-adv-x="485" d="M88 674q0 231 80 491q79 260 219 406h12q-170 -429 -170 -889q0 -466 172 -922h-12q-142 151 -221 414q-80 269 -80 500z" />
<glyph unicode=")" horiz-adv-x="485" d="M84 -240q172 456 172 922q0 460 -170 889h12q140 -146 219 -406q80 -260 80 -491t-80 -500q-79 -263 -221 -414h-12z" />
<glyph unicode="*" horiz-adv-x="686" d="M102 1182l48 92l141 -96l31 22l-27 160h100l-33 -160l29 -18l150 86l34 -90l-167 -37l-11 -39l125 -144l-80 -49l-82 166l-32 -2l-84 -162l-78 50l125 139l-12 37z" />
<glyph unicode="+" horiz-adv-x="940" d="M90 588v61q196 -4 350 -4q0 303 -2 352h62q-4 -196 -4 -352q154 0 354 4v-61q-51 2 -354 2q0 -156 4 -352h-62q2 49 2 352q-303 0 -350 -2z" />
<glyph unicode="," horiz-adv-x="366" d="M106 63q0 35 20 56.5t50 21.5q37 0 63.5 -33t26.5 -90q0 -73 -34.5 -133.5t-96.5 -95.5l-8 4q82 64 82 172q0 15 -4 35q-13 -8 -31 -8q-32 0 -50 20t-18 51z" />
<glyph unicode="-" horiz-adv-x="641" d="M117 586v61q180 -4 202 -4q25 0 205 4v-61q-45 2 -205 2q-157 0 -202 -2z" />
<glyph unicode="." horiz-adv-x="358" d="M104 63q0 32 21.5 55t50.5 23q33 0 55.5 -21.5t22.5 -56.5q0 -29 -23 -50t-55 -21q-29 0 -50.5 21t-21.5 50z" />
<glyph unicode="/" horiz-adv-x="868" d="M61 -94l682 1665h64l-682 -1665h-64z" />
<glyph unicode="0" horiz-adv-x="1277" d="M100 725q0 194 60 371q58 174 184 288q127 115 295 115t295 -115q121 -113 182.5 -284t61.5 -375q0 -189 -48.5 -339t-130.5 -239q-157 -167 -362 -167q-201 0 -358 167q-82 89 -130.5 239t-48.5 339zM293 750q0 -723 344 -723q348 0 348 723q0 361 -84.5 531.5 t-263.5 170.5q-174 0 -259 -171.5t-85 -530.5z" />
<glyph unicode="1" horiz-adv-x="608" d="M59 1200q120 81 138 94q44 33 106 101q63 66 78 125h10v-1327q3 -85 12.5 -121t27 -47.5t63.5 -18.5v-10q-114 4 -179 4q-60 0 -178 -4v10q46 7 63.5 18.5t27 47.5t12.5 121v1107q-62 -52 -170 -122z" />
<glyph unicode="2" horiz-adv-x="1122" d="M23 -2v10q185 103 378 275q122 112 201 215q93 117 151 261.5t58 284.5q0 213 -100 306q-101 96 -244 96q-135 0 -229 -82q-97 -82 -97 -215q0 -111 92 -182q-21 -8 -81 -45q-68 83 -68 202q0 169 123 283q122 113 317 113q191 0 322 -125q135 -126 135 -357 q0 -93 -42 -196.5t-110 -196.5q-66 -92 -161 -184q-101 -98 -181 -166q-97 -82 -190 -154l319 -8q60 -1 115.5 -2t82 -1.5t30.5 -0.5q89 0 121 29q31 28 61 129h10q0 -22 -22 -121q-20 -86 -23 -178q-258 12 -645 12h-192q-86 -2 -131 -2z" />
<glyph unicode="3" horiz-adv-x="1071" d="M88 270q24 15 49.5 40t43.5 45t20 22l4 -8q-15 -41 -15 -82q0 -121 79.5 -190.5t209.5 -69.5q148 0 232 96q82 94 82 233q0 169 -96.5 268.5t-274.5 106.5v14q178 10 266 106t88 255q0 147 -86 233t-233 86q-117 0 -203 -71t-86 -193q0 -78 51 -135q-43 -8 -80 -31 q-28 61 -28 140q0 149 110 256q114 108 293 108q192 0 311 -110q121 -112 121 -271q0 -204 -239 -321q256 -130 256 -375q0 -180 -127 -313q-126 -129 -344 -129q-134 0 -245 77t-159 213z" />
<glyph unicode="4" horiz-adv-x="1089" d="M16 449l818 1071h10v-985h14q62 0 76 2q25 2 48 19t34 48h10q-3 -28 -29 -84q-25 -61 -30 -90q-30 10 -105 10h-18v-247q2 -65 6 -98t17 -53t28.5 -25.5t50.5 -10.5v-10q-114 4 -178 4q-60 0 -178 -4v10q35 5 50.5 10.5t28.5 25.5t17 53t6 98v247h-672zM139 535h553v722z " />
<glyph unicode="5" horiz-adv-x="1030" d="M61 252q18 14 38 32.5t34 33t17 16.5l8 -6q-2 -8 -2 -35q0 -121 87.5 -193.5t229.5 -72.5q144 0 248 98q104 101 104 297q0 189 -102 297q-101 110 -270 110q-168 0 -273 -114h-10q35 262 35 788q276 -18 487 -18q75 0 98 5.5t41 29.5h11l-31 -70q-26 -57 -39 -109 l-516 19q-2 -182 -14 -434q113 49 231 49q216 0 352 -127t136 -359q0 -210 -138 -360q-134 -149 -344 -149q-140 0 -254 72t-164 200z" />
<glyph unicode="6" horiz-adv-x="1132" d="M96 627q0 105 22 208.5t65 202t112 182t156.5 146.5t204.5 99t251 36v-18q-138 -6 -250.5 -60.5t-187.5 -144.5q-201 -250 -201 -694q0 -188 66 -361q38 -96 108 -152.5t164 -56.5q78 0 139 46.5t93 123.5q59 144 59 297q0 210 -82.5 323.5t-224.5 113.5 q-86 0 -156.5 -52.5t-107.5 -154.5h-11q35 131 124.5 202.5t207.5 71.5q168 0 295 -133q125 -131 125 -356q0 -205 -135 -361q-134 -155 -332 -155q-236 0 -371 188q-133 189 -133 459z" />
<glyph unicode="7" horiz-adv-x="1009" d="M43 1204q0 54 6 131q8 68 8 113q0 40 -4 72h10q41 -35 91 -35h876v-10q-203 -385 -434 -897q-233 -522 -242 -641q-40 6 -129 6q39 59 127 247l111 240q18 41 176 385q117 255 246 528h-623q-68 0 -93.5 -2.5t-55.5 -15.5q-30 -12 -42.5 -39.5t-17.5 -81.5h-10z" />
<glyph unicode="8" horiz-adv-x="1009" d="M98 313q0 250 330 410q-74 61 -112.5 96t-82.5 86q-88 110 -88 242q0 160 103 258t266 98q176 0 277 -96q98 -94 98 -227q0 -114 -74.5 -221t-206.5 -175q101 -82 159.5 -143t94 -135t35.5 -156q0 -163 -123 -268q-120 -102 -280 -102q-186 0 -293 96q-103 100 -103 237z M223 324q0 -133 77 -215t214 -82q111 0 173.5 71.5t62.5 180.5q0 132 -93 233q-44 53 -88 90q-46 42 -108 94q-238 -108 -238 -372zM270 1227q0 -82 60 -185q20 -33 76 -86l77 -71l95 -76q100 55 153 151.5t53 208.5q0 133 -73 210t-211 77q-106 0 -168 -61.5t-62 -167.5z " />
<glyph unicode="9" horiz-adv-x="1132" d="M66 983q0 204 135 360t331 156q237 0 369 -188q135 -187 135 -459q0 -127 -31 -250t-96.5 -236.5t-159 -199.5t-229 -137.5t-295.5 -51.5v19q139 6 252.5 61t184.5 144q202 242 202 694q0 192 -67 360q-37 96 -107 152.5t-164 56.5q-78 0 -138.5 -46.5t-92.5 -123.5 q-59 -144 -59 -297q0 -210 82.5 -323t224.5 -113q86 0 156.5 52.5t107.5 154.5h10q-35 -131 -124.5 -202.5t-207.5 -71.5q-170 0 -295 131q-124 130 -124 358z" />
<glyph unicode=":" horiz-adv-x="382" d="M117 63q0 32 21 55t50 23q33 0 55.5 -21.5t22.5 -56.5q0 -29 -23 -50t-55 -21q-29 0 -50 21t-21 50zM117 743q0 32 21 55t50 23q33 0 55.5 -21.5t22.5 -56.5q0 -29 -23 -50t-55 -21q-29 0 -50 21t-21 50z" />
<glyph unicode=";" horiz-adv-x="397" d="M121 63q0 35 19.5 56.5t49.5 21.5q38 0 64.5 -33t26.5 -90q0 -73 -34.5 -133.5t-96.5 -95.5l-9 4q82 64 82 172q0 15 -4 35q-13 -8 -31 -8q-31 0 -49 19.5t-18 51.5zM121 743q0 32 21.5 55t50.5 23q33 0 55 -21.5t22 -56.5q0 -29 -22.5 -50t-54.5 -21q-29 0 -50.5 21 t-21.5 50z" />
<glyph unicode="&#x3c;" horiz-adv-x="882" d="M68 594v49l682 418v-49l-588 -396l588 -387v-49z" />
<glyph unicode="=" horiz-adv-x="1030" d="M135 453v61q208 -4 379 -4q169 0 381 4v-61q-53 2 -381 2t-379 -2zM135 719v61q208 -4 379 -4q169 0 381 4v-61q-53 2 -381 2t-379 -2z" />
<glyph unicode="&#x3e;" horiz-adv-x="882" d="M133 180v49l588 387l-588 396v49l682 -418v-49z" />
<glyph unicode="?" horiz-adv-x="944" d="M74 1161q0 159 108 248q113 90 264 90q166 0 289 -102t123 -287q0 -191 -141 -332q-11 -11 -49.5 -48t-53.5 -53.5t-46.5 -52t-45.5 -62t-32.5 -64.5t-25.5 -78.5t-7 -85.5h-17q0 193 103 323q11 14 42 50.5t45.5 54.5t38 55t35 67t20.5 74t9 91q0 160 -96 247 q-95 86 -225 86q-117 0 -199 -67t-82 -182q0 -93 56 -158.5t145 -65.5q46 0 86 9q-46 -64 -49 -105q-138 29 -216.5 125.5t-78.5 222.5zM375 63q0 32 21 55t50 23q33 0 55.5 -21.5t22.5 -56.5q0 -29 -23 -50t-55 -21q-29 0 -50 21t-21 50z" />
<glyph unicode="@" horiz-adv-x="1703" d="M100 535q0 185 64.5 335.5t177.5 243.5q222 186 526 186q186 0 331 -55t228 -153q166 -184 166 -447q0 -231 -123 -407q-120 -175 -307 -175q-53 0 -83.5 36t-30.5 94q-133 -130 -306 -130q-121 0 -191.5 64.5t-70.5 161.5q0 112 92 186t238 74q143 0 238 -68v287 q0 102 -44.5 152.5t-142.5 50.5q-96 0 -164.5 -69.5t-72.5 -188.5h-105q20 133 121 214t238 81q301 0 301 -267v-479q0 -63 13.5 -89t45.5 -26q107 0 191 152q83 154 83 346q0 232 -139 399q-70 88 -199 137.5t-298 49.5q-269 0 -474 -168q-102 -84 -160.5 -219.5 t-58.5 -302.5q0 -305 183 -512t491 -222v-12q-347 0 -553 203q-205 202 -205 537zM629 301q0 -76 50.5 -128t135.5 -52q137 0 234 112v211q-72 66 -197 66q-101 0 -162 -60.5t-61 -148.5z" />
<glyph unicode="A" horiz-adv-x="1191" d="M-78 -4v10q78 17 121 66q40 49 104 217l463 1231h21l430 -1360q35 -103 49 -123q16 -22 74 -31v-10q-88 4 -178 4t-183 -4v10q90 6 90 72q0 24 -24 106l-121 385h-236q-170 0 -217 -2l-122 -331q-35 -96 -35 -140q0 -81 94 -90v-10q-118 4 -191 4q-25 0 -139 -4zM338 631 q43 -2 194 -2h218l-189 606z" />
<glyph unicode="B" horiz-adv-x="1095" d="M94 -4v10q37 6 53.5 12t32.5 25t22 53.5t9 96.5v1099q0 115 -25 146q-22 32 -88 41v10q118 -4 164 -4t135.5 2t106.5 2q202 0 303 -98q102 -99 102 -238q0 -119 -70 -203t-212 -121q189 -24 291 -147q104 -119 104 -279q0 -177 -111 -294q-112 -115 -311 -115 q-22 0 -158 4q-68 2 -155 2q-75 0 -193 -4zM362 66q100 -17 156 -17q338 0 338 361q0 368 -442 368h-52v-712zM362 827q394 0 394 314q0 139 -81 222t-206 83q-54 0 -107 -16v-603z" />
<glyph unicode="C" horiz-adv-x="1482" d="M76 735q0 142 50 277.5t142 244.5q95 112 249 177t337 65q102 0 254 -26q65 -12 149 -37q1 0 70 -21l62 -16q-7 -93 -7 -195q0 -16 1 -47l1 -31h-10q-15 160 -155 242q-142 86 -357 86q-251 0 -420 -172q-86 -87 -133 -230t-47 -325q0 -174 56 -313.5t153 -223.5 q196 -161 438 -161q166 0 301 75q137 76 181 226h10q-12 -88 -12 -219q-262 -131 -512 -131q-186 0 -341.5 62.5t-256.5 170.5q-203 225 -203 522z" />
<glyph unicode="D" horiz-adv-x="1595" d="M88 -4v10q53 8 71 13.5t40 23.5q22 17 28 49.5t6 100.5v1099q0 64 -8 98t-32 52t-40 23.5t-63 13.5v10q118 -4 195 -4h170q70 2 153 2q421 0 666 -201q242 -199 242 -555q0 -319 -203 -528q-200 -209 -588 -209q-3 0 -203 4q-100 2 -213 2q-103 0 -221 -4zM385 72 q171 -29 338 -29q109 0 198.5 20t169.5 69.5t134.5 128t86 201t31.5 281.5q0 357 -198 525q-200 170 -524 170q-132 0 -236 -23v-1343z" />
<glyph unicode="E" horiz-adv-x="1009" d="M88 1479v10q110 -4 262 -4q448 0 570 4q0 -1 1 -36t1 -50q0 -111 -13 -168h-10q0 134 -63 160q-67 28 -301 28q-127 0 -173 -12v-610h162q133 4 183 20q39 20 58.5 50t25.5 87h10q-4 -168 -4 -190q0 -25 4 -209h-10q-6 64 -26 99t-56 57q-21 10 -76 16q-59 6 -109 6 q-35 2 -162 2v-665q37 -13 175 -13h139q135 5 168 25q78 49 86 178h10q-1 -69 -6.5 -159.5t-5.5 -110.5q-191 6 -422 6q-298 0 -412 -4v10q73 12 95 47t22 140v1099q0 116 -25 144q-22 31 -98 43z" />
<glyph unicode="F" horiz-adv-x="958" d="M86 1479v10q110 -4 262 -4q448 0 570 4q0 -1 1 -36t1 -50q0 -111 -13 -168h-10q0 134 -63 160q-67 28 -302 28q-126 0 -172 -12v-600q280 0 336 20q61 22 76 95q7 30 10 67h11q-5 -210 -5 -215q0 -18 2 -83.5t3 -108.5h-11q-3 60 -21.5 93t-55.5 48q-16 8 -76 14 q-65 7 -109 7q-35 2 -160 2v-557q0 -113 23 -146q26 -32 92 -41v-10q-114 4 -190 4q-61 0 -179 -4v10q46 7 63.5 18.5t27 47.5t12.5 121v1099q0 116 -25 144q-22 31 -98 43z" />
<glyph unicode="G" horiz-adv-x="1521" d="M76 735q0 315 209 541q210 223 569 223q83 0 184 -16q83 -13 156 -31q56 -13 184 -53q-6 -67 -6 -193q0 -70 2 -80h-10q-15 162 -156 246q-137 82 -346 82q-224 0 -407 -160q-93 -81 -146 -224.5t-53 -326.5q0 -319 178 -518q182 -200 449 -200q222 0 338 116v373 q0 67 -7 101.5t-26 52.5q-5 5 -9 8.5t-7.5 6t-8.5 4.5l-7.5 3t-10.5 3t-10.5 2.5t-14 2t-16.5 2.5v11q118 -4 192 -4q52 0 166 4v-11q-42 -8 -58.5 -20t-24 -47.5t-7.5 -118.5v-401q-34 -9 -121 -50q-184 -83 -374 -83q-186 0 -341.5 62.5t-256.5 170.5q-203 225 -203 522z " />
<glyph unicode="H" horiz-adv-x="1501" d="M106 -4v10q46 7 63.5 18.5t27 47.5t12.5 121v1099q-3 85 -12.5 121t-27 47.5t-63.5 18.5v10q118 -4 179 -4q64 0 178 4v-10q-46 -7 -63.5 -18.5t-27 -47.5t-12.5 -121v-465q84 -2 377 -2q314 0 404 2v465q-3 85 -12.5 121t-27 47.5t-63.5 18.5v10q118 -4 179 -4 q64 0 178 4v-10q-46 -7 -63.5 -18.5t-27 -47.5t-12.5 -121v-1099q3 -85 12.5 -121t27 -47.5t63.5 -18.5v-10q-114 4 -178 4q-61 0 -179 -4v10q46 7 63.5 18.5t27 47.5t12.5 121v571q-90 2 -404 2q-293 0 -377 -2v-571q3 -85 12.5 -121t27 -47.5t63.5 -18.5v-10 q-114 4 -178 4q-61 0 -179 -4z" />
<glyph unicode="I" horiz-adv-x="569" d="M106 -4v10q46 7 63.5 18.5t27 47.5t12.5 121v1099q-3 85 -12.5 121t-27 47.5t-63.5 18.5v10q118 -4 179 -4q64 0 178 4v-10q-46 -7 -63.5 -18.5t-27 -47.5t-12.5 -121v-1099q3 -85 12.5 -121t27 -47.5t63.5 -18.5v-10q-114 4 -178 4q-61 0 -179 -4z" />
<glyph unicode="J" horiz-adv-x="567" d="M41 -397q108 21 137 69q31 48 31 187v1433q0 76 -19 119q-18 39 -37 49.5t-73 18.5v10q118 -4 205 -4q82 0 196 4v-10q-35 -6 -69 -21q-21 -8 -36.5 -51t-15.5 -115v-1255q0 -202 -65 -311q-66 -110 -252 -134z" />
<glyph unicode="K" horiz-adv-x="1173" d="M106 -4v10q46 7 63.5 18.5t27 47.5t12.5 121v1099q-3 85 -12.5 121t-27 47.5t-63.5 18.5v10q118 -4 179 -4q64 0 178 4v-10q-46 -7 -63.5 -18.5t-27 -47.5t-12.5 -121v-524l295 328q174 194 207 235q38 49 50 79.5t-1 47.5t-53 21v10q118 -4 168 -4q68 0 182 4v-10 q-88 -15 -245 -166q-103 -99 -486 -504l557 -659q21 -23 45.5 -52.5t26.5 -31.5q22 -25 53.5 -42.5t61.5 -17.5v-10q-114 4 -187 4q-62 0 -180 -4v10q59 6 59 31q0 21 -26 47q-13 21 -56 70l-471 571v-532q3 -85 12.5 -121t27 -47.5t63.5 -18.5v-10q-114 4 -178 4 q-61 0 -179 -4z" />
<glyph unicode="L" horiz-adv-x="962" d="M94 -4v10q73 12 95 47t22 140v1099q-2 65 -6 98t-17 53t-28.5 25.5t-50.5 10.5v10q118 -4 178 -4q64 0 178 4v-10q-46 -7 -63.5 -18.5t-27 -47.5t-12.5 -121v-1218q37 -13 175 -13h139q135 5 168 25q78 49 86 178h10q-1 -69 -6.5 -159.5t-5.5 -110.5q-191 6 -422 6 q-298 0 -412 -4z" />
<glyph unicode="M" horiz-adv-x="1794" d="M-16 -4v10q80 21 114 82q37 61 64 211l227 1221h10l502 -1227l498 1227h10l246 -1360q14 -78 39 -109.5t88 -44.5v-10q-114 4 -178 4q-85 0 -203 -4v10q61 7 82.5 23t21.5 49q0 5 -16 106l-168 973l-455 -1141h-10l-471 1135l-152 -875q-16 -98 -16 -143q0 -58 23 -86.5 t82 -40.5v-10q-118 4 -203 4q-21 0 -135 -4z" />
<glyph unicode="N" horiz-adv-x="1667" d="M82 -4v10q65 24 84 53q39 56 45 367q4 208 4 641v453h14l1160 -1289v183q0 775 -21 913q-15 104 -68 131q-14 10 -47 19q-2 2 -6 2v10q88 -4 174 -4.5t170 4.5v-10q-66 -20 -88 -49q-40 -58 -49 -351q-4 -218 -4 -653v-471h-10l-1164 1294v-184q0 -758 19 -897 q15 -112 65 -139q12 -7 58 -23v-10q-118 4 -174 4q-48 0 -162 -4z" />
<glyph unicode="O" d="M78 729q0 196 88 371q87 172 262 286q174 113 399 113q303 0 516 -219t213 -545q0 -315 -215 -536q-213 -219 -530 -219q-325 0 -530 225q-203 226 -203 524zM268 735q0 -349 152 -530q150 -178 391 -178q245 0 401 178q156 179 156 518q0 362 -164 547 q-163 184 -393 184q-218 0 -373 -168q-80 -83 -125 -226.5t-45 -324.5z" />
<glyph unicode="P" horiz-adv-x="1032" d="M96 1479v10q118 -4 164 -4q45 0 134 2t108 2q245 0 371 -109t126 -295q0 -165 -112 -286q-111 -123 -301 -123q-103 0 -162 47l8 16q54 -28 125 -28q132 0 203 92t71 248q0 181 -86.5 286t-240.5 105q-76 0 -144 -21v-1228q3 -85 12.5 -121t27 -47.5t63.5 -18.5v-10 q-114 4 -178 4q-61 0 -179 -4v10q46 7 63.5 18.5t27 47.5t12.5 121v1099q0 115 -25 146q-22 32 -88 41z" />
<glyph unicode="Q" d="M78 729q0 196 88 371q87 172 262 286q174 113 399 113q303 0 516 -219t213 -545q0 -198 -89.5 -367t-247.5 -272q216 -241 313 -241q21 0 39 12l2 -4q-49 -58 -129 -58q-159 0 -373 220q-122 -45 -260 -45q-325 0 -530 225q-203 226 -203 524zM268 735q0 -349 152 -530 q150 -178 391 -178q245 0 401 178q156 179 156 518q0 362 -164 547q-163 184 -393 184q-218 0 -373 -168q-80 -83 -125 -226.5t-45 -324.5z" />
<glyph unicode="R" horiz-adv-x="1130" d="M106 -4v10q46 7 63.5 18.5t27 47.5t12.5 121v1099q0 103 -19 140t-79 47v10q94 -4 196 -4q60 0 113 2t100 2q227 0 354 -115q130 -115 130 -295q0 -140 -94 -248t-263 -145q25 -18 107 -176q85 -164 188 -317q112 -161 193 -187v-12q-12 -2 -52 -2q-87 3 -131 12 q-37 8 -98 66q-58 61 -102 139q-54 97 -146 270l-51 96q-29 64 -63 91h-132v-473q3 -85 12.5 -121t27 -47.5t63.5 -18.5v-10q-114 4 -178 4q-61 0 -179 -4zM360 709h99q199 0 285.5 87.5t86.5 256.5q0 174 -86 281.5t-237 107.5q-74 0 -148 -21v-712z" />
<glyph unicode="S" horiz-adv-x="933" d="M96 211q0 71 25 129h10q-4 -50 -4 -51q0 -119 94 -189q92 -69 228 -69q120 0 199 73.5t79 202.5q0 83 -34 151.5t-88 117.5t-119.5 94.5t-131 92.5t-119.5 99t-88 126.5t-34 164.5q0 164 106 264q109 103 273 103q52 0 149 -17q94 -16 123 -16q27 0 35 2q-6 -65 -6 -135 q0 -93 2 -113h-13q-46 236 -286 236q-110 0 -180 -60.5t-70 -171.5q0 -92 45 -166q17 -29 37.5 -53.5t50.5 -49.5t49.5 -40t62 -44t60.5 -42q91 -67 147 -113q71 -59 114.5 -147.5t43.5 -194.5q0 -188 -121 -303q-118 -112 -305 -112q-78 0 -162 20q-88 18 -133 18 q-23 0 -31 -2q2 6 2 54q0 15 -5 69t-5 72z" />
<glyph unicode="T" horiz-adv-x="1118" d="M4 1276q4 25 31 110q22 70 39 150h10q3 -41 51 -53q59 -15 393 -15q351 0 461 7q98 9 139 45h13q-17 -46 -35 -107q-27 -104 -29 -113h-12q4 20 4 31q0 27 -15.5 41t-62.5 21q-88 14 -344 14v-1214q3 -85 12.5 -121t27 -47.5t63.5 -18.5v-10q-114 4 -179 4q-60 0 -178 -4 v10q46 7 63.5 18.5t27 47.5t12.5 121v1214q-268 0 -353 -21q-85 -18 -129 -110h-10z" />
<glyph unicode="U" horiz-adv-x="1400" d="M78 1479v10q118 -4 178 -4q79 0 193 4v-10q-71 -9 -93 -41q-24 -30 -24 -146v-739q0 -317 102 -412q114 -108 291 -108q187 0 293 106q129 126 129 393v672q0 104 -5 145t-28 68q-7 9 -12 14.5t-12 10.5l-10.5 7.5t-15.5 6.5t-17 5.5t-24 7t-30 8.5v10q118 -4 187 -4 q56 0 170 4v-10q-65 -17 -93 -35q-49 -28 -49 -236v-645q0 -338 -141 -467q-139 -127 -350 -127q-239 0 -373 107q-164 126 -164 456v762q-2 65 -6 98t-17 53t-28.5 25.5t-50.5 10.5z" />
<glyph unicode="V" horiz-adv-x="1259" d="M-43 1479v10q114 -4 223 -4q83 0 201 4v-10q-109 -9 -109 -78q0 -28 25 -101l381 -1050l293 846q78 236 78 284q0 42 -25.5 65t-83.5 34v10q118 -4 223 -4q21 0 135 4v-10q-75 -20 -131 -101q-47 -69 -133 -309l-395 -1114h-12l-502 1370q-36 93 -68 115q-30 27 -100 39z " />
<glyph unicode="W" horiz-adv-x="1871" d="M-16 1479v10q114 -4 196 -4q64 0 182 4v-10q-90 -9 -90 -78q0 -28 25 -101l387 -1042l219 539l-198 528q-30 80 -63 110t-101 44v10q114 -4 211 -4q52 0 170 4v-10q-82 -9 -82 -70q0 -30 28 -109l117 -301l39 97q84 209 84 278q0 90 -102 105v10q118 -4 237 -4 q21 0 135 4v-10q-83 -15 -137 -88q-52 -70 -154 -322l-65 -166l248 -645l317 838q76 198 76 274q0 92 -113 113v6q118 -4 256 -4q22 0 136 4v-6q-47 -14 -72 -25q-18 -8 -58 -51q-33 -36 -67 -109.5t-94 -228.5l-420 -1114h-12l-279 741l-295 -741h-12l-508 1370 q-30 80 -57.5 111t-83.5 43z" />
<glyph unicode="X" horiz-adv-x="1271" d="M-70 -4v10q117 15 189 84q69 66 252 326l215 307l-383 602q-40 64 -80 98q-34 33 -56 41t-77 15v10q114 -4 223 -4q124 0 242 4v-10q-93 -12 -93 -72q0 -39 41 -104l281 -451l160 244q149 229 149 303q0 68 -98 80v10q118 -4 223 -4q75 0 189 4v-10q-47 -13 -71 -26.5 t-71 -51.5q-44 -36 -101 -110.5t-157 -221.5l-186 -276l397 -633q62 -91 101 -118.5t100 -35.5v-10q-114 4 -207 4q-113 0 -231 -4v10q100 9 100 60q0 42 -51 116l-309 484l-187 -277q-151 -227 -151 -297q0 -71 92 -86v-10q-118 4 -215 4q-116 0 -230 -4z" />
<glyph unicode="Y" horiz-adv-x="1181" d="M-47 1479v10q114 -4 205 -4q64 0 182 4v-10q-92 -12 -92 -66q0 -39 39 -113l344 -698l254 494q10 23 30 59q92 182 97 219q2 10 2 31q0 59 -84 74v10q118 -4 149 -4q42 0 156 4v-10q-60 -12 -88 -47q-30 -38 -123 -220l-76 -143l-282 -539v-337q0 -116 18 -146 q23 -30 84 -41v-10q-114 4 -178 4q-60 0 -178 -4v10q62 12 82 41t20 146v307l-412 825q-43 86 -69.5 114t-79.5 40z" />
<glyph unicode="Z" horiz-adv-x="1220" d="M29 0v10l944 1413h-342h-131q-21 0 -107 -4q-68 -3 -90 -8q-5 -1 -65 -14q-16 -4 -27.5 -8.5t-21.5 -12t-14 -11t-16 -17t-16 -17.5q-31 -35 -47 -125h-10q0 17 4 135q6 91 6 148q250 -4 809 -4h285v-10l-946 -1414h356h170l123 9q70 6 100 16q123 54 135 176h11 q0 -49 -2 -127.5t-2 -83.5q0 -43 2 -57q-279 6 -820 6h-288z" />
<glyph unicode="[" horiz-adv-x="454" d="M158 -238v1809h202v-45h-79v-1721h81v-43h-204z" />
<glyph unicode="\" horiz-adv-x="868" d="M61 1571h64l682 -1665h-64z" />
<glyph unicode="]" horiz-adv-x="454" d="M92 -195h82v1721h-80v45h203v-1809h-205v43z" />
<glyph unicode="^" horiz-adv-x="790" d="M41 778l332 553h49l328 -553h-50l-301 459l-309 -459h-49z" />
<glyph unicode="_" horiz-adv-x="993" d="M117 -31v62q208 -4 379 -4q169 0 381 4v-62q-53 2 -381 2t-379 -2z" />
<glyph unicode="`" horiz-adv-x="681" d="M205 1315l78 82l276 -312l-22 -18z" />
<glyph unicode="a" horiz-adv-x="909" d="M57 205q0 112 92 186t238 74q143 0 238 -68v346q0 102 -44.5 152.5t-142.5 50.5q-96 0 -164.5 -69.5t-72.5 -188.5h-105q20 133 121 214t238 81q301 0 301 -266v-539q0 -63 13.5 -89t45.5 -26t68 31l4 -10q-64 -104 -148 -104q-53 0 -83.5 35.5t-30.5 93.5 q-132 -129 -306 -129q-121 0 -191.5 64t-70.5 161zM205 217q0 -76 50.5 -128t135.5 -52q136 0 234 113v210q-72 66 -197 66q-101 0 -162 -60.5t-61 -148.5z" />
<glyph unicode="b" horiz-adv-x="1042" d="M47 1505v11q153 9 221 45v-674q122 96 262 96q217 0 330 -137q117 -135 117 -330q0 -212 -129 -375q-124 -161 -334 -161q-92 0 -188 38q-103 41 -156 41q-44 0 -80 -4v6q35 18 41 62q6 47 6 221v1051q0 61 -15.5 80.5t-74.5 29.5zM268 301q0 -274 240 -274 q148 0 222.5 120.5t74.5 327.5q0 212 -77 337.5t-226 125.5q-130 0 -234 -94v-543z" />
<glyph unicode="c" horiz-adv-x="962" d="M66 471q0 212 133 363q134 149 376 149q138 0 231 -56.5t112 -146.5h-148q-30 176 -207 176q-163 0 -246 -133q-81 -130 -81 -313q0 -223 102.5 -354t279.5 -131q152 0 265 122l8 -8q-129 -159 -340 -159q-231 0 -358 145t-127 346z" />
<glyph unicode="d" horiz-adv-x="1077" d="M66 455q0 227 143 376q146 152 342 152q118 0 227 -68v480q0 61 -15.5 80.5t-74.5 29.5v11q153 9 221 45v-1287q0 -143 13 -190q12 -40 58 -42q2 0 3 -1q43 0 84 33l6 -11q-59 -83 -158 -83q-62 0 -91 26.5t-40 89.5q-107 -116 -280 -116q-201 0 -322 139 q-116 140 -116 336zM242 475q0 -185 90 -307q88 -119 248 -119q71 0 133 39q65 41 65 127v584q-30 65 -97.5 104t-143.5 39q-133 0 -214 -120t-81 -347z" />
<glyph unicode="e" horiz-adv-x="950" d="M68 479q0 216 125 359q127 145 311 145q158 0 266 -102q111 -102 111 -260h-643q-5 -67 -5 -70q0 -239 111 -371q115 -133 293 -133q144 0 250 100l8 -8q-129 -159 -340 -159q-234 0 -360 147q-127 148 -127 352zM242 662h471q-6 139 -62.5 216.5t-150.5 77.5 t-164.5 -80.5t-93.5 -213.5z" />
<glyph unicode="f" horiz-adv-x="479" d="M59 -4v10q51 9 70 41q18 30 18 146v739h-34v6l34 35q0 202 27 319q27 118 123 199q95 80 207 80q70 0 112 -31l-86 -110q-57 63 -129 63q-81 0 -102 -94q-20 -87 -20 -330v-96h124q39 0 46 10h10q0 -6 -2 -55t-2 -72h-9q0 48 -15.5 62t-68.5 14h-83v-739q0 -116 18 -146 q19 -32 70 -41v-10q-77 4 -154 4z" />
<glyph unicode="g" horiz-adv-x="940" d="M41 -201q0 178 246 254q-72 14 -107 45t-35 90q0 56 43.5 95.5t112.5 60.5q-107 35 -166 118.5t-59 190.5q0 131 96 232q98 98 270 98q182 0 291 -121q87 96 150 96q39 0 63 -34l-74 -119q-15 63 -59 63q-25 0 -61 -28q59 -83 59 -191q0 -150 -106 -237 q-104 -88 -259 -88q-9 0 -71 4q-94 -30 -94 -113q0 -35 16 -54.5t47 -37.5q14 -5 55.5 -12.5t46.5 -8.5l134 -12q167 -18 248 -87.5t81 -174.5q0 -118 -116 -203q-118 -86 -322 -86q-175 0 -303 70q-127 68 -127 190zM201 -188q0 -118 74.5 -181t199.5 -63q119 0 191.5 59 t72.5 176q0 52 -22 111q-24 36 -45.5 55.5t-57.5 32.5q-7 2 -19.5 7t-17 6.5t-14 4t-19.5 4t-24 3.5l-49 8q-12 3 -55 6q-11 1 -22.5 2t-17.5 1.5t-9 0.5q-166 -46 -166 -233zM246 662q0 -163 47.5 -237.5t146.5 -74.5q201 0 201 293q0 313 -207 313q-188 0 -188 -294z" />
<glyph unicode="h" horiz-adv-x="1042" d="M59 -4v10q51 9 70 41q18 30 18 146v1202q0 61 -10.5 79.5t-52.5 30.5v11q116 9 195 45v-660q131 82 299 82q329 0 329 -334v-456q0 -114 19 -146q20 -33 69 -41v-10q-76 4 -153 4t-154 -4v10q51 9 70 41q18 30 18 146v446q0 175 -69 238q-68 65 -181 65q-128 0 -247 -84 v-665q0 -116 18 -146q19 -32 70 -41v-10q-77 4 -154 4z" />
<glyph unicode="i" horiz-adv-x="432" d="M66 -4v10q49 8 69 41q19 32 19 146v614q0 61 -11 80t-53 31v10q116 9 195 45v-780q0 -116 18 -146q19 -32 70 -41v-10q-76 4 -153 4t-154 -4zM160 1204q0 32 20 53t49 21q32 0 53 -21t21 -53q0 -29 -21 -49t-53 -20q-29 0 -49 20t-20 49z" />
<glyph unicode="j" horiz-adv-x="405" d="M-12 -459l2 15q104 0 125 94q22 96 22 397v760q0 61 -10.5 80t-52.5 31v10q115 9 194 45v-998q0 -103 -7.5 -166.5t-31.5 -127.5q-48 -142 -213 -142q-20 0 -28 2zM143 1204q0 32 20 53t50 21q32 0 53 -21t21 -53q0 -29 -21 -49t-53 -20q-29 0 -49.5 20t-20.5 49z" />
<glyph unicode="k" horiz-adv-x="927" d="M59 -4v10q51 9 70 41q18 30 18 146v1202q0 61 -10.5 79.5t-52.5 30.5v11q116 9 195 45v-1026q193 181 272 266q80 89 80 129q0 28 -49 37v10q126 -4 145 -4q13 0 145 4v-12q-76 -16 -147 -72q-88 -70 -340 -305l233 -266q70 -75 152 -172q13 -13 34.5 -36t37.5 -39 t26 -24q37 -25 58 -35t45 -10v-10q-44 1 -89 2t-68 1.5t-30 0.5q-2 0 -16 -0.5t-43 -1.5t-61 -2v10q36 3 36 17q0 9 -14 26l-407 459v-315q0 -116 18 -146q19 -32 70 -41v-10q-77 4 -154 4z" />
<glyph unicode="l" horiz-adv-x="446" d="M70 -4v10q49 8 69 41q19 32 19 146v1202q0 60 -11 79t-53 31v11q116 9 195 45v-1368q0 -116 18 -146q19 -32 70 -41v-10q-76 4 -153 4t-154 -4z" />
<glyph unicode="m" horiz-adv-x="1638" d="M66 -4v10q49 8 69 41q19 32 19 146v624q0 61 -11 80t-53 31v10q116 9 195 45v-82q131 82 299 82q184 0 254 -123q176 123 360 123q305 0 305 -365v-425q0 -114 19 -146q20 -33 69 -41v-10q-76 4 -153 4t-154 -4v10q51 9 70 41q18 30 18 146v415q0 334 -225 334 q-139 0 -295 -108q37 -75 37 -205v-436q0 -116 18 -146q19 -32 70 -41v-10q-77 4 -154 4t-153 -4v10q49 8 69 41q19 32 19 146v425q0 189 -64 256q-65 68 -162 68q-132 0 -247 -80v-669q0 -116 18 -146q19 -32 70 -41v-10q-76 4 -153 4t-154 -4z" />
<glyph unicode="n" horiz-adv-x="1048" d="M66 -4v10q49 8 69 41q19 32 19 146v624q0 61 -11 80t-53 31v10q116 9 195 45v-82q131 82 299 82q329 0 329 -334v-456q0 -114 19 -146q20 -33 69 -41v-10q-76 4 -153 4t-154 -4v10q51 9 70 41q18 30 18 146v446q0 175 -69 238q-68 65 -181 65q-128 0 -247 -84v-665 q0 -116 18 -146q19 -32 70 -41v-10q-76 4 -153 4t-154 -4z" />
<glyph unicode="o" horiz-adv-x="1120" d="M68 479q0 220 141 361q140 143 354 143q213 0 350 -143q140 -146 140 -361q0 -205 -133 -350q-132 -141 -353 -141q-233 0 -366 131t-133 360zM238 461q0 -447 321 -447q97 0 165 40.5t101 115.5q58 132 58 324q0 462 -334 462q-311 0 -311 -495z" />
<glyph unicode="p" horiz-adv-x="1112" d="M55 928v10q153 9 221 45v-98q143 98 306 98q207 0 333 -147q129 -147 129 -361q0 -221 -145 -354t-344 -133q-151 0 -279 84v-340q0 -114 19 -146t70 -41v-10q-77 4 -154 4l-154 -4v10q51 9 70 41q18 30 18 146v1085q0 61 -15.5 81t-74.5 30zM276 123q103 -92 259 -92 q116 0 219 84q55 45 85.5 138t30.5 220q0 193 -98 324q-94 135 -254 135q-129 0 -242 -101v-708z" />
<glyph unicode="q" horiz-adv-x="1099" d="M66 465q0 223 145 371q144 147 373 147q62 0 155 -22q97 -23 158 -23q65 0 141 12v-10q-55 -18 -72.5 -61.5t-17.5 -147.5v-999q0 -114 19 -146q20 -33 69 -41v-10q-77 4 -153.5 4t-153.5 -4v10q51 9 70 41q18 30 18 146v334q-121 -86 -268 -86q-199 0 -342 131 q-141 132 -141 354zM236 471q0 -218 102 -332q104 -110 244 -110q152 0 235 92v493q0 96 -2 121q-3 36 -12 86q-14 67 -56.5 90t-148.5 31q-165 0 -263.5 -126.5t-98.5 -344.5z" />
<glyph unicode="r" horiz-adv-x="641" d="M66 -4v10q49 8 69 41q19 32 19 146v624q0 61 -11 80t-53 31v10q116 9 195 45v-94q107 94 204 94q132 0 132 -170h-132q0 107 -75 107q-60 0 -129 -78v-649q0 -116 18 -146q19 -32 70 -41v-10q-76 4 -153 4t-154 -4z" />
<glyph unicode="s" horiz-adv-x="739" d="M82 45q7 32 10 113q3 72 14 131h11q-2 -8 -2 -39q0 -111 56 -176.5t169 -65.5q86 0 137 52t51 145q0 68 -43 122t-114 89q-7 4 -38 20t-40.5 21.5t-38 21.5t-39.5 25t-34 27t-33 31.5t-25 34t-21.5 40t-12 44.5t-5.5 52q0 119 96 185q100 65 226 65q114 0 233 -35 q-6 -30 -6 -65v-6q0 -6 0.5 -17.5t1 -26.5t1 -37.5t1.5 -47.5h-10q-18 92 -77.5 150t-152.5 58q-80 0 -130 -48.5t-50 -131.5q0 -48 25 -86.5t64.5 -65.5t87.5 -52t96.5 -54t88 -64t64.5 -89.5t25 -122.5q0 -124 -99 -195q-98 -67 -229 -67q-134 0 -258 65z" />
<glyph unicode="t" horiz-adv-x="598" d="M43 961v10q91 0 157 74t93 196h12q-31 -181 -31 -268h168q87 0 111 8q31 10 51 43l12 -12q-72 -97 -84 -146h-16q4 16 4 23q0 25 -21 34t-77 9h-148v-705q0 -104 33 -147t113 -43q114 0 160 110l10 -6q-64 -161 -236 -161q-99 0 -155 47t-56 196v625q0 62 -18 82t-82 31z " />
<glyph unicode="u" horiz-adv-x="1069" d="M33 928v10q163 9 231 45v-639q0 -164 54 -236.5t176 -72.5q186 0 278 182v600q0 61 -15.5 81t-74.5 30v10q153 9 221 45v-788q0 -58 6 -91q9 -45 47 -45q36 0 74 35l4 -10q-20 -33 -35 -51q-15 -21 -46.5 -37t-65.5 -16q-115 0 -115 188q-114 -188 -330 -188 q-309 0 -309 354v483q0 56 -19.5 78.5t-80.5 32.5z" />
<glyph unicode="v" horiz-adv-x="993" d="M-18 965v10q28 0 67 -2h103h106q41 2 70 2v-10q-51 -6 -71.5 -18t-20.5 -38q0 -27 14 -59l268 -655l232 520q59 130 59 176q0 65 -102 74v10q2 0 27.5 -0.5t63.5 -1t70 -0.5q30 0 87 1t59 1v-10q-40 -9 -66 -25q-61 -45 -157 -262l-314 -711h-14l-371 899 q-23 55 -43.5 73t-66.5 26z" />
<glyph unicode="w" horiz-adv-x="1503" d="M-16 965v10q28 0 67 -2h103h106q41 2 70 2v-10q-51 -6 -71.5 -18t-20.5 -38q0 -18 14 -59l235 -655l220 507l-56 164q-17 50 -41.5 67.5t-89.5 31.5v10q129 -6 242 -6q70 0 115 2q19 1 40 2t32 1.5t16 0.5v-10q-46 -11 -79 -42.5t-67 -103.5l199 -624l237 520 q60 132 60 174q0 67 -107 76v10q2 0 28.5 -0.5t66 -1t71.5 -0.5h88q35 2 62 2v-10q-44 -9 -66 -25q-55 -28 -162 -262l-321 -711h-14l-228 662l-287 -662h-14l-338 899q-20 55 -40.5 73t-69.5 26z" />
<glyph unicode="x" horiz-adv-x="1030" d="M-14 -2v10q53 6 80 21q74 33 380 436l-288 401q-46 54 -79 72t-83 27v10q40 0 108 -2t144 -2q35 0 90.5 2t56.5 2v-10q-104 -15 -104 -58q0 -27 28 -69l201 -279l115 152q117 159 117 204q0 40 -52 46v10q2 0 28.5 -0.5t66 -1t71.5 -0.5h90q35 2 62 2v-10q-7 -1 -49 -9 q-13 -3 -56 -24q-40 -21 -82 -66q-96 -96 -284 -338l305 -418q30 -44 68 -65q36 -22 58 -26.5t75 -6.5v-10q-38 0 -95 2h-133q-35 0 -66.5 -0.5t-49 -1t-19.5 -0.5v10q49 6 49 33q0 20 -45 82l-223 307l-129 -172q-1 -2 -10.5 -14t-22 -28t-18.5 -26q-55 -86 -55 -124 q0 -49 67 -58v-10q-29 0 -74 2h-118q-30 0 -76.5 -1t-48.5 -1z" />
<glyph unicode="y" horiz-adv-x="1060" d="M-18 965v10q30 0 75 -2h111h106q41 2 70 2v-10q-52 -6 -73 -18t-21 -38q0 -20 16 -63l297 -668l254 533q60 132 60 176q0 69 -103 78v10q2 0 27.5 -0.5t64 -1t70.5 -0.5q30 0 86.5 1t58.5 1v-10q-58 -12 -100 -60q-41 -48 -123 -227l-393 -838q-74 -157 -74 -219 q0 -21 5.5 -34t19 -21t24 -11t33.5 -8v-10q-31 0 -82 2h-127q-30 0 -71 -1t-43 -1v10q71 6 118 56q46 49 135 237l82 172l-376 850q-19 41 -39.5 63t-37 28t-50.5 12z" />
<glyph unicode="z" horiz-adv-x="954" d="M47 0v6l666 920h-226h-116q-18 0 -88 -4q-51 -5 -67.5 -8t-45.5 -15q-9 -4 -15 -8t-10 -7t-8 -9l-6 -9t-6.5 -13t-7.5 -15q-17 -38 -31 -119h-10q6 65 6 145q0 35 -4 113q110 -4 405 -4q266 0 422 4v-10l-669 -920h313q194 0 252 43q59 44 71 182h11q0 -54 -9 -139 q-6 -85 -6 -137q-328 4 -632 4h-189z" />
<glyph unicode="{" horiz-adv-x="452" d="M63 676v8q97 38 97 246v399q0 137 41 187q42 51 172 51v-6q-42 -13 -64 -48q-13 -23 -18.5 -47t-6.5 -43t-1 -69v-469q0 -77 -15 -123q-14 -60 -90 -82q52 -16 72 -49q23 -30 28 -59.5t5 -100.5v-510q0 -43 2 -66.5t10.5 -49t27 -43t50.5 -33.5v-7q-138 0 -176 56 q-37 52 -37 202v490q0 76 -21 112.5t-76 53.5z" />
<glyph unicode="|" horiz-adv-x="391" d="M156 -461q2 121 2 1008q0 893 -2 1014h82q-5 -600 -5 -1014q0 -398 5 -1008h-82z" />
<glyph unicode="}" horiz-adv-x="452" d="M80 -231q32 16 50.5 33.5t27 43t10.5 49t2 66.5v510q0 54 4 94q12 84 100 115q-72 21 -92 82q-12 52 -12 123v469q0 46 -4 92q-2 36 -24.5 70t-61.5 45v6q131 0 170 -51q43 -49 43 -187v-399q0 -208 96 -246v-8q-55 -17 -75.5 -53.5t-20.5 -112.5v-490q0 -150 -37 -202 q-38 -56 -176 -56v7z" />
<glyph unicode="~" horiz-adv-x="1001" d="M74 1049q19 111 89 178t169 67q77 0 213 -71q137 -70 217 -70q63 0 109 42.5t67 111.5h8q-5 -30 -14.5 -61t-30 -67.5t-47.5 -64.5t-70 -46.5t-94 -18.5q-80 0 -209 69q-135 72 -213 72q-75 0 -117.5 -31.5t-68.5 -109.5h-8z" />
<glyph unicode="&#xa1;" horiz-adv-x="432" d="M129 -266q0 238 21 463q12 130 27.5 259.5t24.5 198.5t9 86h14q0 -24 19 -176q21 -163 37 -368q18 -225 18 -463q0 -123 -84 -123q-86 0 -86 123zM143 981q0 32 21.5 55t50.5 23q35 0 56.5 -21.5t21.5 -56.5q0 -29 -23 -50.5t-55 -21.5q-29 0 -50.5 21.5t-21.5 50.5z" />
<glyph unicode="&#xa2;" horiz-adv-x="1142" d="M76 735q0 230 137 398q136 167 389 188v164h47v-162q1 0 7 1t10 1q159 0 264 -64t129 -169l-174 6q-30 196 -236 196v-1071q54 -4 66 -4q172 0 303 143l10 -10q-141 -181 -379 -184v-168h-47v168q-251 12 -389 176q-137 165 -137 391zM272 780q0 -219 88 -364t242 -183 v1057q-166 -21 -248 -170q-82 -146 -82 -340z" />
<glyph unicode="&#xa3;" horiz-adv-x="956" d="M90 -4v10q73 12 95 47t22 140v528h-115v47h115v209q0 200 37 315.5t133 198.5q95 80 207 80q70 0 112 -31l-86 -110q-57 63 -129 63q-81 0 -102 -94q-21 -91 -21 -330v-301h355v-47h-355v-647q37 -13 123 -13h140q134 5 167 25q78 49 86 178h11q-1 -70 -7 -160t-6 -110 q-190 6 -421 6q-247 0 -361 -4z" />
<glyph unicode="&#xa4;" horiz-adv-x="1226" d="M123 748q0 264 192 407l-131 131l43 43l142 -141q115 63 250 63t245 -63l142 141l43 -43l-134 -133q193 -144 193 -405q0 -127 -53 -233.5t-150 -174.5l144 -141l-43 -43l-154 151q-99 -51 -229 -51q-137 0 -246 47l-150 -147l-43 43l135 135q-196 126 -196 414zM197 748 q0 -195 113 -306.5t311 -111.5q184 0 299 121q114 120 114 297q0 185 -119 307q-117 123 -297 123q-182 0 -303 -121q-118 -118 -118 -309z" />
<glyph unicode="&#xa5;" horiz-adv-x="1439" d="M82 1479v10q114 -4 205 -4q64 0 182 4v-10q-92 -12 -92 -66q0 -39 39 -113l344 -698l254 494q10 23 30 59q92 182 97 219l2 31q0 59 -84 74v10q118 -4 149 -4q42 0 156 4v-10q-60 -12 -88 -47q-30 -38 -123 -220q-15 -26 -37.5 -70t-38.5 -73l-186 -354h407v-47h-432 l-71 -138v-131h503v-47h-503v-159q0 -116 18 -146q23 -30 84 -41v-10q-114 4 -178 4q-60 0 -178 -4v10q62 12 82 41t20 146v159h-510v47h510v101l-84 168h-426v47h402l-304 610q-43 86 -69.5 114t-79.5 40z" />
<glyph unicode="&#xa6;" horiz-adv-x="403" d="M162 -461q2 104 2 871h76q0 -461 4 -871h-82zM162 1561h82q-4 -376 -4 -818h-76q0 720 -2 818z" />
<glyph unicode="&#xa7;" horiz-adv-x="909" d="M104 51q8 37 11 113q3 72 14 131h10q-2 -8 -2 -39q0 -111 56 -176.5t169 -65.5q86 0 137.5 52.5t51.5 144.5q0 68 -43.5 126t-114.5 99q-8 5 -38 23.5t-40.5 25t-38 25.5t-39 29t-34 29.5t-33 34.5t-25.5 37t-21.5 42.5t-12 45.5t-5.5 52q0 101 71.5 165.5t184.5 78.5 q-133 103 -133 244q0 118 97 184q101 66 225 66q114 0 233 -35q-6 -30 -6 -66v-6q0 -6 0.5 -17.5t1 -26.5t1 -37.5t1.5 -47.5h-10q-18 93 -77 151t-152 58q-80 0 -130.5 -48.5t-50.5 -131.5q0 -48 25 -89t64.5 -71.5t88 -60t96.5 -63t87.5 -72t64.5 -95t25 -125.5 q0 -97 -62.5 -162.5t-166.5 -89.5q106 -100 106 -235q0 -125 -98 -195q-98 -67 -230 -67q-134 0 -258 65zM240 823q0 -66 41 -116q44 -50 139 -109q86 -51 131 -86q123 38 123 186q0 92 -66 150q-35 35 -59 51q-4 3 -80 53l-76 49q-68 -8 -110.5 -56t-42.5 -122z" />
<glyph unicode="&#xa8;" horiz-adv-x="610" d="M103.5 1160q2.5 30 22 47t46 21.5t53.5 -22.5q35 -28 20 -67.5t-52 -50t-70 17.5q-22 24 -19.5 54zM362 1157q0 29 22.5 50.5t51.5 21.5q26 0 49 -23t23 -49t-23 -49t-49 -23q-29 0 -51.5 21.5t-22.5 50.5z" />
<glyph unicode="&#xa9;" horiz-adv-x="1796" d="M80 752q0 339 237 579q240 240 580 240t580 -240q239 -239 239 -579q0 -341 -239 -580q-241 -238 -580 -238t-580 238q-237 240 -237 580zM152 752q0 -312 217 -529t528 -217t528 217q220 220 220 529q0 308 -220 528q-219 219 -528 219t-528 -219q-217 -217 -217 -528z M377 754q0 215 143 370q145 160 400 160q124 0 374 -70q-6 -50 -6 -114q0 -71 2 -96h-16q-10 109 -103.5 169t-244.5 60q-161 0 -275 -129q-112 -124 -112 -356q0 -219 129 -342q132 -123 290 -123q117 0 207.5 55t118.5 154h19q-9 -52 -9 -173q-186 -92 -358 -92 q-260 0 -410 156q-149 155 -149 371z" />
<glyph unicode="&#xaa;" horiz-adv-x="866" d="M119 846q0 99 69 160t185 61q110 0 184 -51v215q0 155 -145 155q-73 0 -127.5 -50.5t-55.5 -137.5h-100q17 105 97.5 166t199.5 61q252 0 252 -204v-416q0 -50 9.5 -69t35.5 -19q28 0 53 22l2 -6q-46 -82 -123 -82q-42 0 -70 29t-28 72q-107 -101 -235 -101 q-96 0 -149.5 53.5t-53.5 141.5zM143 467v41h594v-41h-594zM254 856q0 -64 34 -106.5t89 -42.5q100 0 180 86v184q-55 49 -151 49q-66 0 -109 -49.5t-43 -120.5z" />
<glyph unicode="&#xab;" horiz-adv-x="839" d="M55 461v55l342 272v-55l-235 -244l235 -245v-56zM383 461v55l342 272v-55l-236 -244l236 -245v-56z" />
<glyph unicode="&#xac;" horiz-adv-x="1052" d="M154 588v61q208 -4 378 -4q169 0 381 4q0 -151 5 -411h-62q2 49 2 350q-51 2 -326 2q-327 0 -378 -2z" />
<glyph unicode="&#xad;" horiz-adv-x="641" d="M117 586v61q180 -4 202 -4q25 0 205 4v-61q-45 2 -205 2q-157 0 -202 -2z" />
<glyph unicode="&#xae;" horiz-adv-x="1796" d="M80 752q0 339 237 579q240 240 580 240t580 -240q239 -239 239 -579q0 -341 -239 -580q-241 -238 -580 -238t-580 238q-237 240 -237 580zM152 752q0 -312 217 -529t528 -217t528 217q220 220 220 529q0 308 -220 528q-219 219 -528 219t-528 -219q-217 -217 -217 -528z M559 219v10q48 9 62 29t14 107v788q0 74 -14.5 101.5t-57.5 33.5v12q35 -2 164 -2h82q39 2 72 2q164 0 258 -80.5t94 -215.5q0 -103 -67 -179.5t-191 -105.5q19 -19 78 -131q66 -122 137 -228q76 -114 139 -135v-8q-10 -2 -59 -2q-114 3 -166 55q-45 48 -180 299 q-63 120 -82 136h-76v-340q0 -87 14 -107t60 -29v-10q-6 0 -57.5 1t-71.5 1q-49 0 -84 -2h-68zM766 756h72q249 0 249 229q0 111 -59.5 185.5t-155.5 74.5q-60 0 -106 -14v-475z" />
<glyph unicode="&#xaf;" horiz-adv-x="681" d="M61 1126v62q246 -4 279 -4q31 0 281 4v-62q-63 2 -281 2t-279 -2z" />
<glyph unicode="&#xb0;" horiz-adv-x="643" d="M63 1176q0 105 74 182q76 76 185 76t182 -76q76 -76 76 -182q0 -107 -76 -183q-76 -73 -182 -73q-107 0 -183 73q-76 76 -76 183zM130 1176q0 -80 56 -136q55 -54 135.5 -54t135.5 54q55 56 55 136t-55 135t-135 55t-136 -55t-56 -135z" />
<glyph unicode="&#xb1;" horiz-adv-x="1046" d="M143 162v61q208 -4 379 -4q169 0 381 4v-61q-53 2 -381 2t-379 -2zM143 662v61q196 -4 351 -4q0 303 -2 352h61q-4 -196 -4 -352q154 0 354 4v-61q-51 2 -354 2q0 -157 4 -353h-61q2 49 2 353q-304 0 -351 -2z" />
<glyph unicode="&#xb4;" horiz-adv-x="681" d="M205 1087l276 312l78 -82l-332 -248z" />
<glyph unicode="&#xb5;" horiz-adv-x="1179" d="M94 928v10q164 9 232 45v-639q0 -164 53.5 -236.5t175.5 -72.5q187 0 279 182v600q0 61 -16 81t-75 30v10q155 9 222 45v-788q0 -58 6 -91q9 -45 47 -45q36 0 74 35l4 -10q-20 -33 -35 -51q-15 -21 -46.5 -37t-66.5 -16q-114 0 -114 188q-48 -82 -136 -135t-180 -53 q-135 0 -205 143q0 -73 6 -240q9 -166 9 -202q0 -71 -13.5 -104.5t-60.5 -39.5q-47 0 -63.5 34.5t-16.5 109.5q0 19 4 137q17 244 17 999q0 56 -20 78.5t-81 32.5z" />
<glyph unicode="&#xb6;" horiz-adv-x="1419" d="M70 991q0 186 126 295t371 109q54 0 154 -2t385 -2q56 0 170 4v-11q-35 -5 -50.5 -10.5t-28.5 -25t-17 -52.5t-6 -98v-1003q2 -65 6 -98t17 -53t28.5 -25.5t50.5 -10.5v-10q-114 4 -170 4q-48 0 -166 -4v10q35 5 50.5 10.5t28.5 25.5t17 53t6 98v954q0 113 -18.5 155 t-67.5 42q-54 0 -75 -42.5t-21 -154.5v-1210q3 -85 12.5 -121t27 -47.5t63.5 -18.5v-10q-118 4 -179 4q-64 0 -178 -4v10q46 7 63.5 18.5t27 47.5t12.5 121v1388q-67 21 -144 21q-154 0 -240.5 -105.5t-86.5 -286.5q0 -156 71 -248t203 -92q69 0 125 29l8 -16 q-59 -47 -162 -47q-189 0 -303 123q-110 122 -110 286z" />
<glyph unicode="&#xb7;" horiz-adv-x="382" d="M117 743q0 32 21 55t50 23q33 0 55.5 -21.5t22.5 -56.5q0 -29 -23 -50t-55 -21q-29 0 -50 21t-21 50z" />
<glyph unicode="&#xb8;" horiz-adv-x="507" d="M102 -297h7q34 -57 108 -57q46 0 76.5 27t30.5 75q0 39 -26.5 67.5t-64.5 28.5q-46 0 -86 -37h-4l95 203h26l-47 -127q21 8 51 8q58 0 98 -39.5t40 -101.5q0 -65 -48.5 -107t-113.5 -42q-52 0 -91 27t-51 75z" />
<glyph unicode="&#xba;" horiz-adv-x="956" d="M100 1032q0 190 113 291q114 102 270 102q157 0 267 -104q112 -103 112 -289q0 -174 -108 -276q-109 -103 -267 -103q-183 0 -285 94.5t-102 284.5zM176 467v41h594v-41h-594zM252 1016q0 -169 52.5 -249.5t174.5 -80.5q126 0 178 88.5t52 272.5q0 177 -55.5 260.5 t-182.5 83.5q-219 0 -219 -375z" />
<glyph unicode="&#xbb;" horiz-adv-x="839" d="M115 188v56l235 245l-235 244v55l342 -272v-55zM442 188v56l236 245l-236 244v55l342 -272v-55z" />
<glyph unicode="&#xbf;" horiz-adv-x="927" d="M86 -63q0 190 141 331q13 13 43.5 43t46 45t42.5 45.5t41.5 51.5t34 53.5t29 62t16.5 67t7 77.5h17q0 -194 -103 -324q-12 -15 -42.5 -50.5t-45 -54t-38 -55t-35 -66.5t-20.5 -74t-9 -91q0 -163 94 -248q95 -86 227 -86q114 0 197 68q84 69 84 182q0 93 -56 158t-145 65 q-50 0 -86 -8q46 64 49 104q138 -29 216.5 -125.5t78.5 -222.5q0 -159 -110 -247q-111 -91 -262 -91q-165 0 -289 103q-123 102 -123 287zM420 983q0 29 23 50.5t55 21.5q29 0 50 -21.5t21 -50.5q0 -32 -21 -55t-50 -23q-35 0 -56.5 22.5t-21.5 55.5z" />
<glyph unicode="&#xc0;" horiz-adv-x="1191" d="M-78 -4v10q78 17 121 66q40 49 104 217l463 1231h21l430 -1360q35 -103 49 -123q16 -22 74 -31v-10q-176 9 -361 0v10q90 6 90 72q0 24 -24 106l-121 385h-236q-170 0 -217 -2l-122 -331q-35 -96 -35 -140q0 -81 94 -90v-10q-118 4 -191 4q-25 0 -139 -4zM338 631 q43 -2 194 -2h218l-189 606zM377 1827l78 82l276 -312l-22 -18z" />
<glyph unicode="&#xc1;" horiz-adv-x="1191" d="M-78 -4v10q78 17 121 66q40 49 104 217l463 1231h21l430 -1360q35 -103 49 -123q16 -22 74 -31v-10q-176 9 -361 0v10q90 6 90 72q0 24 -24 106l-121 385h-236q-170 0 -217 -2l-122 -331q-35 -96 -35 -140q0 -81 94 -90v-10q-118 4 -191 4q-25 0 -139 -4zM338 631 q43 -2 194 -2h218l-189 606zM459 1599l276 312l78 -82l-332 -248z" />
<glyph unicode="&#xc2;" horiz-adv-x="1191" d="M-78 -4v10q78 17 121 66q40 49 104 217l463 1231h21l430 -1360q35 -103 49 -123q16 -22 74 -31v-10q-176 9 -361 0v10q90 6 90 72q0 24 -24 106l-121 385h-236q-170 0 -217 -2l-122 -331q-35 -96 -35 -140q0 -81 94 -90v-10q-118 4 -191 4q-25 0 -139 -4zM324 1569 l272 342h55l273 -342h-56l-245 235l-244 -235h-55zM338 631q43 -2 194 -2h218l-189 606z" />
<glyph unicode="&#xc3;" horiz-adv-x="1191" d="M-78 -4v10q78 17 121 66q40 49 104 217l463 1231h21l430 -1360q35 -103 49 -123q16 -22 74 -31v-10q-176 9 -361 0v10q90 6 90 72q0 24 -24 106l-121 385h-236q-170 0 -217 -2l-122 -331q-35 -96 -35 -140q0 -81 94 -90v-10q-118 4 -191 4q-25 0 -139 -4zM330 1597 q12 75 59.5 122.5t112.5 47.5q52 0 141 -47t143 -47q87 0 117 103h19q-12 -71 -60.5 -125t-122.5 -54q-48 0 -139 48q-89 47 -141 47q-47 0 -68.5 -19.5t-40.5 -75.5h-20zM338 631q43 -2 194 -2h218l-189 606z" />
<glyph unicode="&#xc4;" horiz-adv-x="1191" d="M-78 -4v10q78 17 121 66q40 49 104 217l463 1231h21l430 -1360q35 -103 49 -123q16 -22 74 -31v-10q-176 9 -361 0v10q90 6 90 72q0 24 -24 106l-121 385h-236q-170 0 -217 -2l-122 -331q-35 -96 -35 -140q0 -81 94 -90v-10q-118 4 -191 4q-25 0 -139 -4zM293.5 1451 q2.5 30 22.5 47t46.5 21.5t53.5 -22.5q35 -28 20 -67.5t-52.5 -50t-70.5 17.5q-22 24 -19.5 54zM338 631q43 -2 194 -2h218l-189 606zM799 1439q-8 35 22 58q29 34 69.5 19.5t51 -50.5t-19.5 -67q-30 -38 -77 -16q-37 19 -46 56z" />
<glyph unicode="&#xc5;" horiz-adv-x="1191" d="M-78 -4v10q78 17 121 66q40 49 104 217l463 1231h21l430 -1360q35 -103 49 -123q16 -22 74 -31v-10q-176 9 -361 0v10q90 6 90 72q0 24 -24 106l-121 385h-236q-170 0 -217 -2l-122 -331q-35 -96 -35 -140q0 -81 94 -90v-10q-118 4 -191 4q-25 0 -139 -4zM338 631 q43 -2 194 -2h218l-189 606zM449 1731q0 72 50 121t122 49q69 0 119.5 -50.5t50.5 -119.5t-50.5 -119.5t-122.5 -50.5q-70 0 -119.5 49.5t-49.5 120.5zM506 1731q0 -47 33.5 -80t78.5 -33q49 0 83 33t34 80t-33.5 79.5t-80.5 32.5q-48 0 -81.5 -32.5t-33.5 -79.5z" />
<glyph unicode="&#xc6;" horiz-adv-x="1806" d="M-66 -4l3 10q85 17 143 66q58 52 172 217l752 1085q-7 57 -30 75.5t-89 29.5v10q86 -4 262 -4q447 0 569 4q0 -1 1 -36t1 -50q0 -115 -12 -168h-10q0 133 -64 160q-67 28 -301 28q-125 0 -172 -12v-610h162q132 4 182 20q39 20 58.5 50t25.5 87h10q-4 -168 -4 -190 q0 -25 4 -209h-10q-6 64 -26 99t-56 57q-21 10 -75 16q-59 6 -109 6q-35 2 -162 2v-665q37 -13 174 -13h140q134 5 167 25q78 49 86 178h11q-1 -70 -7 -160t-6 -110q-190 6 -421 6q-298 0 -412 -4v10q73 12 95 47t22 140v376h-248q-189 0 -242 -2l-227 -331 q-48 -71 -70 -111q-14 -25 -14 -59q0 -51 69 -60l-2 -10q-118 4 -190 4q-92 0 -150 -4zM561 631q43 -2 199 -2h248v655z" />
<glyph unicode="&#xc7;" horiz-adv-x="1486" d="M78 735q0 142 50 277.5t142 244.5q95 112 249 177t337 65q102 0 254 -26q68 -13 150 -37q6 -1 15.5 -4t25.5 -8t28 -9l62 -16q-7 -93 -7 -195q0 -16 1 -47l1 -31h-10q-15 160 -155 242q-142 86 -357 86q-251 0 -420 -172q-86 -87 -133 -230t-47 -325q0 -174 56 -313.5 t153 -223.5q196 -161 438 -161q166 0 301 75q137 76 181 226h10q-12 -88 -12 -219q-262 -128 -502 -131l-35 -97q21 8 51 8q58 0 97.5 -39.5t39.5 -101.5q0 -65 -48 -107t-113 -42q-52 0 -91 27t-51 75h6q34 -57 109 -57q46 0 76.5 27t30.5 75q0 39 -26.5 67.5t-64.5 28.5 q-46 0 -86 -37h-4l80 173q-149 2 -277.5 44.5t-219.5 115t-156.5 168.5t-97 204.5t-31.5 222.5z" />
<glyph unicode="&#xc8;" horiz-adv-x="1009" d="M88 1479v10q110 -4 262 -4q448 0 570 4q0 -1 1 -36t1 -50q0 -111 -13 -168h-10q0 134 -63 160q-67 28 -301 28q-127 0 -173 -12v-610h162q133 4 183 20q39 20 58.5 50t25.5 87h10q-4 -168 -4 -190q0 -25 4 -209h-10q-6 64 -26 99t-56 57q-21 10 -76 16q-59 6 -109 6 q-35 2 -162 2v-665q37 -13 175 -13h139q135 5 168 25q78 49 86 178h10q-1 -69 -6.5 -159.5t-5.5 -110.5q-191 6 -422 6q-298 0 -412 -4v10q73 12 95 47t22 140v1099q0 116 -25 144q-22 31 -98 43zM315 1827l78 82l277 -312l-23 -18z" />
<glyph unicode="&#xc9;" horiz-adv-x="1009" d="M88 1479v10q110 -4 262 -4q448 0 570 4q0 -1 1 -36t1 -50q0 -111 -13 -168h-10q0 134 -63 160q-67 28 -301 28q-127 0 -173 -12v-610h162q133 4 183 20q39 20 58.5 50t25.5 87h10q-4 -168 -4 -190q0 -25 4 -209h-10q-6 64 -26 99t-56 57q-21 10 -76 16q-59 6 -109 6 q-35 2 -162 2v-665q37 -13 175 -13h139q135 5 168 25q78 49 86 178h10q-1 -69 -6.5 -159.5t-5.5 -110.5q-191 6 -422 6q-298 0 -412 -4v10q73 12 95 47t22 140v1099q0 116 -25 144q-22 31 -98 43zM438 1599l277 312l78 -82l-332 -248z" />
<glyph unicode="&#xca;" horiz-adv-x="1009" d="M88 1479v10q110 -4 262 -4q448 0 570 4q0 -1 1 -36t1 -50q0 -111 -13 -168h-10q0 134 -63 160q-67 28 -301 28q-127 0 -173 -12v-610h162q133 4 183 20q39 20 58.5 50t25.5 87h10q-4 -168 -4 -190q0 -25 4 -209h-10q-6 64 -26 99t-56 57q-21 10 -76 16q-59 6 -109 6 q-35 2 -162 2v-665q37 -13 175 -13h139q135 5 168 25q78 49 86 178h10q-1 -69 -6.5 -159.5t-5.5 -110.5q-191 6 -422 6q-298 0 -412 -4v10q73 12 95 47t22 140v1099q0 116 -25 144q-22 31 -98 43zM274 1597l273 342h55l272 -342h-55l-246 236l-243 -236h-56z" />
<glyph unicode="&#xcb;" horiz-adv-x="1009" d="M88 1479v10q110 -4 262 -4q448 0 570 4q0 -1 1 -36t1 -50q0 -111 -13 -168h-10q0 134 -63 160q-67 28 -301 28q-127 0 -173 -12v-610h162q133 4 183 20q39 20 58.5 50t25.5 87h10q-4 -168 -4 -190q0 -25 4 -209h-10q-6 64 -26 99t-56 57q-21 10 -76 16q-59 6 -109 6 q-35 2 -162 2v-665q37 -13 175 -13h139q135 5 168 25q78 49 86 178h10q-1 -69 -6.5 -159.5t-5.5 -110.5q-191 6 -422 6q-298 0 -412 -4v10q73 12 95 47t22 140v1099q0 116 -25 144q-22 31 -98 43zM349.5 1672q2.5 30 22 47t46 21.5t53.5 -22.5q35 -28 20 -67.5t-52 -50 t-70 17.5q-22 24 -19.5 54zM608 1669q0 29 22.5 50.5t51.5 21.5q26 0 49 -23t23 -49t-23 -49t-49 -23q-29 0 -51.5 21.5t-22.5 50.5z" />
<glyph unicode="&#xcc;" horiz-adv-x="569" d="M6 1827l78 82l276 -312l-22 -18zM106 -4v10q46 7 63.5 18.5t27 47.5t12.5 121v1099q-3 85 -12.5 121t-27 47.5t-63.5 18.5v10q118 -4 179 -4q64 0 178 4v-10q-46 -7 -63.5 -18.5t-27 -47.5t-12.5 -121v-1099q3 -85 12.5 -121t27 -47.5t63.5 -18.5v-10q-114 4 -178 4 q-61 0 -179 -4z" />
<glyph unicode="&#xcd;" horiz-adv-x="569" d="M106 -4v10q46 7 63.5 18.5t27 47.5t12.5 121v1099q-3 85 -12.5 121t-27 47.5t-63.5 18.5v10q118 -4 179 -4q64 0 178 4v-10q-46 -7 -63.5 -18.5t-27 -47.5t-12.5 -121v-1099q3 -85 12.5 -121t27 -47.5t63.5 -18.5v-10q-114 4 -178 4q-61 0 -179 -4zM215 1599l277 312 l77 -82l-331 -248z" />
<glyph unicode="&#xce;" horiz-adv-x="569" d="M-14 1597l272 342h55l273 -342h-56l-245 236l-244 -236h-55zM106 -4v10q46 7 63.5 18.5t27 47.5t12.5 121v1099q-3 85 -12.5 121t-27 47.5t-63.5 18.5v10q118 -4 179 -4q64 0 178 4v-10q-46 -7 -63.5 -18.5t-27 -47.5t-12.5 -121v-1099q3 -85 12.5 -121t27 -47.5 t63.5 -18.5v-10q-114 4 -178 4q-61 0 -179 -4z" />
<glyph unicode="&#xcf;" horiz-adv-x="569" d="M82.5 1672q2.5 30 22.5 47t46.5 21.5t53.5 -22.5q35 -28 20 -67.5t-52.5 -50t-70.5 17.5q-22 24 -19.5 54zM106 -4v10q46 7 63.5 18.5t27 47.5t12.5 121v1099q-3 85 -12.5 121t-27 47.5t-63.5 18.5v10q118 -4 179 -4q64 0 178 4v-10q-46 -7 -63.5 -18.5t-27 -47.5 t-12.5 -121v-1099q3 -85 12.5 -121t27 -47.5t63.5 -18.5v-10q-114 4 -178 4q-61 0 -179 -4zM342 1669q0 29 22.5 50.5t51.5 21.5q26 0 48.5 -23t22.5 -49t-22.5 -49t-48.5 -23q-29 0 -51.5 21.5t-22.5 50.5z" />
<glyph unicode="&#xd0;" horiz-adv-x="1572" d="M66 -4v10q53 8 70.5 13.5t39.5 23.5t28.5 50.5t6.5 99.5v520q-13 0 -51 -1t-49 -1v61q23 -2 100 -2v522q0 63 -8.5 97.5t-32.5 52.5t-40 23.5t-62 13.5v10q118 -4 194 -4h170q70 2 154 2q420 0 665 -201q242 -199 242 -555q0 -319 -203 -528q-200 -209 -588 -209 q-2 0 -202 4q-100 2 -213 2q-103 0 -221 -4zM362 72q171 -29 338 -29q90 0 167 14.5t148.5 46t126 85.5t95.5 130t62.5 183.5t21.5 240.5q0 356 -199 525q-200 170 -524 170q-132 0 -236 -23v-647h74q38 0 328 4v-61q-72 2 -328 2h-74v-641z" />
<glyph unicode="&#xd1;" horiz-adv-x="1667" d="M82 -4v10q65 24 84 53q39 56 45 367q4 208 4 641v453h14l1160 -1289v183q0 775 -21 913q-15 104 -68 131q-14 10 -47 19q-2 2 -6 2v10q176 -9 344 0v-10q-66 -20 -88 -49q-40 -58 -49 -351q-4 -218 -4 -653v-471h-10l-1164 1294v-184q0 -758 19 -897q15 -112 65 -139 q12 -7 58 -23v-10q-118 4 -174 4q-48 0 -162 -4zM537 1597q12 75 59.5 122.5t112.5 47.5q52 0 141 -47t143 -47q87 0 117 103h18q-12 -71 -60 -125t-122 -54q-48 0 -139 48q-89 47 -141 47q-47 0 -68.5 -19.5t-40.5 -75.5h-20z" />
<glyph unicode="&#xd2;" d="M78 729q0 196 88 371q87 172 262 286q174 113 399 113q303 0 516 -219t213 -545q0 -315 -215 -536q-213 -219 -530 -219q-325 0 -530 225q-203 226 -203 524zM268 735q0 -349 152 -530q150 -178 391 -178q245 0 401 178q156 179 156 518q0 362 -164 547 q-163 184 -393 184q-218 0 -373 -168q-80 -83 -125 -226.5t-45 -324.5zM639 1827l78 82l276 -312l-22 -18z" />
<glyph unicode="&#xd3;" d="M78 729q0 196 88 371q87 172 262 286q174 113 399 113q303 0 516 -219t213 -545q0 -315 -215 -536q-213 -219 -530 -219q-325 0 -530 225q-203 226 -203 524zM268 735q0 -349 152 -530q150 -178 391 -178q245 0 401 178q156 179 156 518q0 362 -164 547 q-163 184 -393 184q-218 0 -373 -168q-80 -83 -125 -226.5t-45 -324.5zM639 1599l276 312l78 -82l-331 -248z" />
<glyph unicode="&#xd4;" d="M78 729q0 196 88 371q87 172 262 286q174 113 399 113q303 0 516 -219t213 -545q0 -315 -215 -536q-213 -219 -530 -219q-325 0 -530 225q-203 226 -203 524zM268 735q0 -349 152 -530q150 -178 391 -178q245 0 401 178q156 179 156 518q0 362 -164 547 q-163 184 -393 184q-218 0 -373 -168q-80 -83 -125 -226.5t-45 -324.5zM516 1573l272 342h56l272 -342h-55l-246 235l-244 -235h-55z" />
<glyph unicode="&#xd5;" d="M78 729q0 196 88 371q87 172 262 286q174 113 399 113q303 0 516 -219t213 -545q0 -315 -215 -536q-213 -219 -530 -219q-325 0 -530 225q-203 226 -203 524zM268 735q0 -349 152 -530q150 -178 391 -178q245 0 401 178q156 179 156 518q0 362 -164 547 q-163 184 -393 184q-218 0 -373 -168q-80 -83 -125 -226.5t-45 -324.5zM520 1597q12 75 59.5 122.5t112.5 47.5q53 0 142 -47t143 -47q87 0 117 103h18q-12 -71 -60 -125t-122 -54q-48 0 -139 48q-89 47 -142 47q-46 0 -67.5 -19t-40.5 -76h-21z" />
<glyph unicode="&#xd6;" d="M78 729q0 196 88 371q87 172 262 286q174 113 399 113q303 0 516 -219t213 -545q0 -315 -215 -536q-213 -219 -530 -219q-325 0 -530 225q-203 226 -203 524zM144.5 1422q2.5 30 22 47t46 21.5t53.5 -22.5q35 -28 20 -67.5t-52 -50t-70 17.5q-22 24 -19.5 54zM268 735 q0 -349 152 -530q150 -178 391 -178q245 0 401 178q156 179 156 518q0 362 -164 547q-163 184 -393 184q-218 0 -373 -168q-80 -83 -125 -226.5t-45 -324.5zM1346 1419q0 29 22 50.5t51 21.5q26 0 49 -23t23 -49t-23 -48.5t-49 -22.5q-29 0 -51 21t-22 50z" />
<glyph unicode="&#xd7;" horiz-adv-x="847" d="M133 371l250 245l-250 248l43 43l246 -250l248 250l43 -43l-252 -246q158 -158 254 -247l-43 -43l-250 252l-246 -252z" />
<glyph unicode="&#xd8;" d="M78 729q0 196 88 371q87 172 262 286q174 113 399 113q131 0 250 -45l49 117h64l-57 -139q194 -93 308.5 -279t114.5 -418q0 -315 -215 -536q-213 -219 -530 -219q-131 0 -256 43l-47 -117h-64l58 139q-196 88 -312 279q-112 184 -112 405zM268 735q0 -459 258 -629 l527 1287q-113 61 -242 61q-218 0 -373 -168q-80 -83 -125 -226.5t-45 -324.5zM578 78q102 -51 233 -51q245 0 401 178q156 179 156 518q0 451 -264 639z" />
<glyph unicode="&#xd9;" horiz-adv-x="1400" d="M78 1479v10q118 -4 178 -4q79 0 193 4v-10q-71 -9 -93 -41q-24 -30 -24 -146v-739q0 -317 102 -412q114 -108 291 -108q187 0 293 106q129 126 129 393v672q0 104 -5 145t-28 68q-7 9 -12 14.5t-12 10.5l-10.5 7.5t-15.5 6.5t-17 5.5t-24 7t-30 8.5v10q118 -4 187 -4 q56 0 170 4v-10q-65 -17 -93 -35q-49 -28 -49 -236v-645q0 -338 -141 -467q-139 -127 -350 -127q-239 0 -373 107q-164 126 -164 456v762q-2 65 -6 98t-17 53t-28.5 25.5t-50.5 10.5zM455 1827l77 82l277 -312l-23 -18z" />
<glyph unicode="&#xda;" horiz-adv-x="1400" d="M78 1479v10q118 -4 178 -4q79 0 193 4v-10q-71 -9 -93 -41q-24 -30 -24 -146v-739q0 -317 102 -412q114 -108 291 -108q187 0 293 106q129 126 129 393v672q0 104 -5 145t-28 68q-7 9 -12 14.5t-12 10.5l-10.5 7.5t-15.5 6.5t-17 5.5t-24 7t-30 8.5v10q118 -4 187 -4 q56 0 170 4v-10q-65 -17 -93 -35q-49 -28 -49 -236v-645q0 -338 -141 -467q-139 -127 -350 -127q-239 0 -373 107q-164 126 -164 456v762q-2 65 -6 98t-17 53t-28.5 25.5t-50.5 10.5zM639 1599l276 312l78 -82l-331 -248z" />
<glyph unicode="&#xdb;" horiz-adv-x="1400" d="M78 1479v10q118 -4 178 -4q79 0 193 4v-10q-71 -9 -93 -41q-24 -30 -24 -146v-739q0 -317 102 -412q114 -108 291 -108q187 0 293 106q129 126 129 393v672q0 104 -5 145t-28 68q-7 9 -12 14.5t-12 10.5l-10.5 7.5t-15.5 6.5t-17 5.5t-24 7t-30 8.5v10q118 -4 187 -4 q56 0 170 4v-10q-65 -17 -93 -35q-49 -28 -49 -236v-645q0 -338 -141 -467q-139 -127 -350 -127q-239 0 -373 107q-164 126 -164 456v762q-2 65 -6 98t-17 53t-28.5 25.5t-50.5 10.5zM430 1571l272 342h56l272 -342h-55l-246 235l-244 -235h-55z" />
<glyph unicode="&#xdc;" horiz-adv-x="1400" d="M78 1479v10q118 -4 178 -4q79 0 193 4v-10q-71 -9 -93 -41q-24 -30 -24 -146v-739q0 -317 102 -412q114 -108 291 -108q187 0 293 106q129 126 129 393v672q0 104 -5 145t-28 68q-7 9 -12 14.5t-12 10.5l-10.5 7.5t-15.5 6.5t-17 5.5t-24 7t-30 8.5v10q118 -4 187 -4 q56 0 170 4v-10q-65 -17 -93 -35q-49 -28 -49 -236v-645q0 -338 -141 -467q-139 -127 -350 -127q-239 0 -373 107q-164 126 -164 456v762q-2 65 -6 98t-17 53t-28.5 25.5t-50.5 10.5zM533.5 1303q2.5 30 22 47.5t46 22t53.5 -22.5q35 -28 20 -67.5t-52 -50.5t-70 17 q-22 24 -19.5 54zM793 1300q0 29 22 50.5t51 21.5q26 0 49 -23t23 -49t-23 -48.5t-49 -22.5q-29 0 -51 21t-22 50z" />
<glyph unicode="&#xdd;" horiz-adv-x="1181" d="M-47 1479v10q114 -4 205 -4q64 0 182 4v-10q-92 -12 -92 -66q0 -39 39 -113l344 -698l254 494q10 23 30 59q92 182 97 219q2 10 2 31q0 59 -84 74v10q118 -4 149 -4q42 0 156 4v-10q-60 -12 -88 -47q-30 -38 -123 -220l-76 -143l-282 -539v-337q0 -116 18 -146 q23 -30 84 -41v-10q-114 4 -178 4q-60 0 -178 -4v10q62 12 82 41t20 146v307l-412 825q-43 86 -69.5 114t-79.5 40zM547 1599l276 312l78 -82l-332 -248z" />
<glyph unicode="&#xde;" horiz-adv-x="1030" d="M106 -4v10q46 7 63.5 18.5t27 47.5t12.5 121v1099q-3 85 -12.5 121t-27 47.5t-63.5 18.5v10q118 -4 179 -4q64 0 178 4v-10q-46 -7 -63.5 -18.5t-27 -47.5t-12.5 -121v-155q112 14 142 14q245 0 371 -108.5t126 -294.5q0 -166 -112 -287q-111 -123 -301 -123 q-103 0 -162 47l8 16q54 -28 125 -28q132 0 203 92t71 248q0 181 -86.5 286t-240.5 105q-76 0 -144 -21v-890q3 -85 12.5 -121t27 -47.5t63.5 -18.5v-10q-114 4 -178 4q-61 0 -179 -4z" />
<glyph unicode="&#xdf;" horiz-adv-x="1003" d="M59 -4v10q51 9 70 41q18 30 18 146v737h-34v6l34 35q0 103 6.5 172t28.5 149q34 129 116.5 200t229.5 77q107 0 177.5 -69t70.5 -183q0 -70 -35.5 -144.5t-85.5 -130.5q-118 -137 -118 -227q0 -46 24 -86t62 -71t84 -61t92 -63t84 -70t62 -88.5t24 -111.5 q0 -124 -79 -204t-210 -80q-114 0 -238 65q8 37 11 113q3 72 14 131h10q-2 -8 -2 -39q0 -109 53 -175.5t152 -66.5q71 0 110 60t39 151q0 43 -20 83t-52 72.5t-71 65t-78 67.5t-71 73t-52 88.5t-20 107.5q0 91 90 221q38 58 64 144.5t26 175.5q0 217 -131 217 q-106 0 -170.5 -115t-64.5 -350v-876q0 -116 18 -146q19 -32 70 -41v-10q-154 8 -308 0z" />
<glyph unicode="&#xe0;" horiz-adv-x="909" d="M57 205q0 112 92 186t238 74q143 0 238 -68v346q0 102 -44.5 152.5t-142.5 50.5q-96 0 -164.5 -69.5t-72.5 -188.5h-105q20 133 121 214t238 81q301 0 301 -266v-539q0 -63 13.5 -89t45.5 -26t68 31l4 -10q-64 -104 -148 -104q-53 0 -83.5 35.5t-30.5 93.5 q-132 -129 -306 -129q-121 0 -191.5 64t-70.5 161zM205 217q0 -76 50.5 -128t135.5 -52q136 0 234 113v210q-72 66 -197 66q-101 0 -162 -60.5t-61 -148.5zM207 1315l78 82l276 -312l-22 -18z" />
<glyph unicode="&#xe1;" horiz-adv-x="909" d="M57 205q0 112 92 186t238 74q143 0 238 -68v346q0 102 -44.5 152.5t-142.5 50.5q-96 0 -164.5 -69.5t-72.5 -188.5h-105q20 133 121 214t238 81q301 0 301 -266v-539q0 -63 13.5 -89t45.5 -26t68 31l4 -10q-64 -104 -148 -104q-53 0 -83.5 35.5t-30.5 93.5 q-132 -129 -306 -129q-121 0 -191.5 64t-70.5 161zM205 217q0 -76 50.5 -128t135.5 -52q136 0 234 113v210q-72 66 -197 66q-101 0 -162 -60.5t-61 -148.5zM332 1087l276 312l78 -82l-332 -248z" />
<glyph unicode="&#xe2;" horiz-adv-x="909" d="M57 205q0 112 92 186t238 74q143 0 238 -68v346q0 102 -44.5 152.5t-142.5 50.5q-96 0 -164.5 -69.5t-72.5 -188.5h-105q20 133 121 214t238 81q301 0 301 -266v-539q0 -63 13.5 -89t45.5 -26t68 31l4 -10q-64 -104 -148 -104q-53 0 -83.5 35.5t-30.5 93.5 q-132 -129 -306 -129q-121 0 -191.5 64t-70.5 161zM143 1085l273 342h55l272 -342h-55l-246 236l-243 -236h-56zM205 217q0 -76 50.5 -128t135.5 -52q136 0 234 113v210q-72 66 -197 66q-101 0 -162 -60.5t-61 -148.5z" />
<glyph unicode="&#xe3;" horiz-adv-x="909" d="M57 205q0 112 92 186t238 74q143 0 238 -68v346q0 102 -44.5 152.5t-142.5 50.5q-96 0 -164.5 -69.5t-72.5 -188.5h-105q20 133 121 214t238 81q301 0 301 -266v-539q0 -63 13.5 -89t45.5 -26t68 31l4 -10q-64 -104 -148 -104q-53 0 -83.5 35.5t-30.5 93.5 q-132 -129 -306 -129q-121 0 -191.5 64t-70.5 161zM147 1085q12 75 59.5 122.5t112.5 47.5q53 0 142 -47t143 -47q87 0 117 103h18q-12 -71 -60 -125t-122 -54q-48 0 -139 48q-89 47 -142 47q-46 0 -67.5 -19t-40.5 -76h-21zM205 217q0 -76 50.5 -128t135.5 -52 q136 0 234 113v210q-72 66 -197 66q-101 0 -162 -60.5t-61 -148.5z" />
<glyph unicode="&#xe4;" horiz-adv-x="909" d="M57 205q0 112 92 186t238 74q143 0 238 -68v346q0 102 -44.5 152.5t-142.5 50.5q-96 0 -164.5 -69.5t-72.5 -188.5h-105q20 133 121 214t238 81q301 0 301 -266v-539q0 -63 13.5 -89t45.5 -26t68 31l4 -10q-64 -104 -148 -104q-53 0 -83.5 35.5t-30.5 93.5 q-132 -129 -306 -129q-121 0 -191.5 64t-70.5 161zM205 217q0 -76 50.5 -128t135.5 -52q136 0 234 113v210q-72 66 -197 66q-101 0 -162 -60.5t-61 -148.5zM240.5 1160q2.5 30 22 47t46 21.5t53.5 -22.5q35 -28 20 -67.5t-52 -50t-70 17.5q-22 24 -19.5 54zM500 1148 q-8 35 22 58q29 34 69.5 19.5t51 -50.5t-19.5 -67q-30 -38 -77 -16q-37 19 -46 56z" />
<glyph unicode="&#xe5;" horiz-adv-x="909" d="M57 205q0 112 92 186t238 74q143 0 238 -68v346q0 102 -44.5 152.5t-142.5 50.5q-96 0 -164.5 -69.5t-72.5 -188.5h-105q20 133 121 214t238 81q301 0 301 -266v-539q0 -63 13.5 -89t45.5 -26t68 31l4 -10q-64 -104 -148 -104q-53 0 -83.5 35.5t-30.5 93.5 q-132 -129 -306 -129q-121 0 -191.5 64t-70.5 161zM205 217q0 -76 50.5 -128t135.5 -52q136 0 234 113v210q-72 66 -197 66q-101 0 -162 -60.5t-61 -148.5zM276 1219q0 72 50.5 121t122.5 49q69 0 119 -50.5t50 -119.5t-50 -119.5t-122 -50.5q-70 0 -120 49.5t-50 120.5z M334 1219q0 -47 33.5 -80t78.5 -33q49 0 83 33t34 80t-33.5 79.5t-80.5 32.5q-48 0 -81.5 -32.5t-33.5 -79.5z" />
<glyph unicode="&#xe6;" horiz-adv-x="1501" d="M57 205q0 109 90 184q91 76 240 76q150 0 238 -70q-7 89 -7 156q0 31 3 96q4 86 4 96q0 102 -44.5 152.5t-142.5 50.5q-96 0 -164.5 -69.5t-72.5 -188.5h-105q20 133 121 214t238 81q231 0 284 -160q124 160 316 160q158 0 266 -102q111 -102 111 -260h-644 q-4 -54 -4 -70q0 -239 111 -371q115 -133 293 -133q144 0 250 100l8 -8q-129 -159 -340 -159q-276 0 -404 204q-174 -204 -383 -204q-121 0 -191.5 64t-70.5 161zM205 217q0 -76 50.5 -128t135.5 -52q158 0 295 174q-43 82 -55 143q-87 72 -203 72q-101 0 -162 -60.5 t-61 -148.5zM793 662h471q-6 139 -62.5 216.5t-150.5 77.5t-164.5 -80.5t-93.5 -213.5z" />
<glyph unicode="&#xe7;" horiz-adv-x="964" d="M68 471q0 212 133 363q134 149 377 149q138 0 230.5 -56.5t111.5 -146.5h-148q-30 176 -207 176q-163 0 -246 -133q-81 -130 -81 -313q0 -223 103 -354t280 -131q151 0 264 122l8 -8q-129 -159 -340 -159l-35 -97q21 8 51 8q58 0 98 -39.5t40 -101.5q0 -65 -48.5 -107 t-113.5 -42q-52 0 -91 27t-51 75h7q34 -57 108 -57q46 0 76.5 27t30.5 75q0 39 -26 67.5t-64 28.5q-46 0 -86 -37h-5l80 173q-218 9 -338 153q-118 142 -118 338z" />
<glyph unicode="&#xe8;" horiz-adv-x="950" d="M68 479q0 216 125 359q127 145 311 145q158 0 266 -102q111 -102 111 -260h-643q-5 -67 -5 -70q0 -239 111 -371q115 -133 293 -133q144 0 250 100l8 -8q-129 -159 -340 -159q-234 0 -360 147q-127 148 -127 352zM242 662h471q-6 139 -62.5 216.5t-150.5 77.5 t-164.5 -80.5t-93.5 -213.5zM276 1315l78 82l277 -312l-23 -18z" />
<glyph unicode="&#xe9;" horiz-adv-x="950" d="M68 479q0 216 125 359q127 145 311 145q158 0 266 -102q111 -102 111 -260h-643q-5 -67 -5 -70q0 -239 111 -371q115 -133 293 -133q144 0 250 100l8 -8q-129 -159 -340 -159q-234 0 -360 147q-127 148 -127 352zM242 662h471q-6 139 -62.5 216.5t-150.5 77.5 t-164.5 -80.5t-93.5 -213.5zM381 1087l276 312l78 -82l-332 -248z" />
<glyph unicode="&#xea;" horiz-adv-x="950" d="M68 479q0 216 125 359q127 145 311 145q158 0 266 -102q111 -102 111 -260h-643q-5 -67 -5 -70q0 -239 111 -371q115 -133 293 -133q144 0 250 100l8 -8q-129 -159 -340 -159q-234 0 -360 147q-127 148 -127 352zM209 1085l272 342h56l272 -342h-55l-246 236l-244 -236 h-55zM242 662h471q-6 139 -62.5 216.5t-150.5 77.5t-164.5 -80.5t-93.5 -213.5z" />
<glyph unicode="&#xeb;" horiz-adv-x="950" d="M68 479q0 216 125 359q127 145 311 145q158 0 266 -102q111 -102 111 -260h-643q-5 -67 -5 -70q0 -239 111 -371q115 -133 293 -133q144 0 250 100l8 -8q-129 -159 -340 -159q-234 0 -360 147q-127 148 -127 352zM242 662h471q-6 139 -62.5 216.5t-150.5 77.5 t-164.5 -80.5t-93.5 -213.5zM293.5 1160q2.5 30 22.5 47t46.5 21.5t53.5 -22.5q35 -28 20 -67.5t-52.5 -50t-70.5 17.5q-22 24 -19.5 54zM553 1148q-8 35 22 58q29 34 69.5 19.5t51 -50.5t-19.5 -67q-30 -38 -77 -16q-37 19 -46 56z" />
<glyph unicode="&#xec;" horiz-adv-x="432" d="M-18 1315l77 82l277 -312l-23 -18zM66 -4v10q49 8 69 41q19 32 19 146v614q0 61 -11 80t-53 31v10q116 9 195 45v-780q0 -116 18 -146q19 -32 70 -41v-10q-153 8 -307 0z" />
<glyph unicode="&#xed;" horiz-adv-x="432" d="M66 -4v10q49 8 69 41q19 32 19 146v614q0 61 -11 80t-53 31v10q116 9 195 45v-780q0 -116 18 -146q19 -32 70 -41v-10q-153 8 -307 0zM84 1087l276 312l78 -82l-332 -248z" />
<glyph unicode="&#xee;" horiz-adv-x="432" d="M-80 1085l273 342h55l272 -342h-55l-246 236l-244 -236h-55zM66 -4v10q49 8 69 41q19 32 19 146v614q0 61 -11 80t-53 31v10q116 9 195 45v-780q0 -116 18 -146q19 -32 70 -41v-10q-153 8 -307 0z" />
<glyph unicode="&#xef;" horiz-adv-x="432" d="M17.5 1160q2.5 30 22 47t46 21.5t53.5 -22.5q35 -28 20 -67.5t-52 -50t-70 17.5q-22 24 -19.5 54zM66 -4v10q49 8 69 41q19 32 19 146v614q0 61 -11 80t-53 31v10q116 9 195 45v-780q0 -116 18 -146q19 -32 70 -41v-10q-153 8 -307 0zM276 1157q0 29 22.5 50.5t51.5 21.5 q26 0 49 -23t23 -49t-23 -49t-49 -23q-29 0 -51.5 21.5t-22.5 50.5z" />
<glyph unicode="&#xf0;" horiz-adv-x="1159" d="M68 479q0 220 141 361q140 143 354 143q149 0 283 -90q-59 268 -197 412l-119 -101l-26 31l117 98q-150 135 -381 150v18q252 -3 436 -121l139 115l23 -31l-127 -108q177 -125 270 -340q92 -213 92 -436q0 -254 -131 -422q-132 -170 -375 -170q-233 0 -366 131t-133 360z M238 461q0 -447 321 -447q97 0 165 40.5t101 115.5q58 132 58 324q0 156 -19 286q-110 174 -313 174q-157 0 -235 -119t-78 -374z" />
<glyph unicode="&#xf1;" horiz-adv-x="1048" d="M66 -4v10q49 8 69 41q19 32 19 146v624q0 61 -11 80t-53 31v10q116 9 195 45v-82q131 82 299 82q329 0 329 -334v-456q0 -114 19 -146q20 -33 69 -41v-10q-153 8 -307 0v10q51 9 70 41q18 30 18 146v446q0 175 -69 238q-68 65 -181 65q-128 0 -247 -84v-665 q0 -116 18 -146q19 -32 70 -41v-10q-153 8 -307 0zM219 1085q12 75 59.5 122.5t112.5 47.5q52 0 141 -47t144 -47q87 0 117 103h18q-12 -71 -60 -125t-122 -54q-49 0 -140 48q-89 47 -141 47q-46 0 -67.5 -19t-40.5 -76h-21z" />
<glyph unicode="&#xf2;" horiz-adv-x="1120" d="M68 479q0 220 141 361q140 143 354 143q213 0 350 -143q140 -146 140 -361q0 -205 -133 -350q-132 -141 -353 -141q-233 0 -366 131t-133 360zM238 461q0 -447 321 -447q97 0 165 40.5t101 115.5q58 132 58 324q0 462 -334 462q-311 0 -311 -495zM299 1315l78 82 l276 -312l-22 -18z" />
<glyph unicode="&#xf3;" horiz-adv-x="1120" d="M68 479q0 220 141 361q140 143 354 143q213 0 350 -143q140 -146 140 -361q0 -205 -133 -350q-132 -141 -353 -141q-233 0 -366 131t-133 360zM238 461q0 -447 321 -447q97 0 165 40.5t101 115.5q58 132 58 324q0 462 -334 462q-311 0 -311 -495zM461 1087l276 312 l78 -82l-332 -248z" />
<glyph unicode="&#xf4;" horiz-adv-x="1120" d="M68 479q0 220 141 361q140 143 354 143q213 0 350 -143q140 -146 140 -361q0 -205 -133 -350q-132 -141 -353 -141q-233 0 -366 131t-133 360zM238 461q0 -447 321 -447q97 0 165 40.5t101 115.5q58 132 58 324q0 462 -334 462q-311 0 -311 -495zM260 1085l272 342h56 l272 -342h-55l-246 236l-244 -236h-55z" />
<glyph unicode="&#xf5;" horiz-adv-x="1120" d="M68 479q0 220 141 361q140 143 354 143q213 0 350 -143q140 -146 140 -361q0 -205 -133 -350q-132 -141 -353 -141q-233 0 -366 131t-133 360zM238 461q0 -447 321 -447q97 0 165 40.5t101 115.5q58 132 58 324q0 462 -334 462q-311 0 -311 -495zM264 1085 q12 75 59.5 122.5t112.5 47.5q53 0 142 -47t143 -47q87 0 117 103h18q-12 -71 -60 -125t-122 -54q-48 0 -139 48q-89 47 -142 47q-46 0 -67.5 -19t-40.5 -76h-21z" />
<glyph unicode="&#xf6;" horiz-adv-x="1120" d="M68 479q0 220 141 361q140 143 354 143q213 0 350 -143q140 -146 140 -361q0 -205 -133 -350q-132 -141 -353 -141q-233 0 -366 131t-133 360zM238 461q0 -447 321 -447q97 0 165 40.5t101 115.5q58 132 58 324q0 462 -334 462q-311 0 -311 -495zM357.5 1160 q2.5 30 22 47t46 21.5t53.5 -22.5q35 -28 20 -67.5t-52 -50t-70 17.5q-22 24 -19.5 54zM616 1157q0 29 22.5 50.5t51.5 21.5q26 0 49 -23t23 -49t-23 -49t-49 -23q-29 0 -51.5 21.5t-22.5 50.5z" />
<glyph unicode="&#xf7;" horiz-adv-x="1030" d="M135 588v61q208 -4 379 -4q169 0 381 4v-61q-53 2 -381 2t-379 -2zM440 356q0 32 21.5 55t50.5 23q32 0 55 -23t23 -55q0 -29 -23 -50t-55 -21q-29 0 -50.5 21t-21.5 50zM440 872q0 32 21.5 55t50.5 23q32 0 55 -23t23 -55q0 -29 -23 -50t-55 -21q-29 0 -50.5 21 t-21.5 50z" />
<glyph unicode="&#xf8;" horiz-adv-x="1120" d="M68 479q0 220 141 361q140 143 354 143q83 0 162 -27l45 111h64l-54 -131q126 -62 199.5 -183.5t73.5 -273.5q0 -205 -133 -350q-132 -141 -353 -141q-87 0 -168 20l-49 -121h-63l57 140q-134 54 -205 170.5t-71 281.5zM238 461q0 -284 124 -387l349 846q-68 36 -162 36 q-311 0 -311 -495zM414 43q66 -29 145 -29q97 0 165 40.5t101 115.5q58 132 58 324q0 285 -123 393z" />
<glyph unicode="&#xf9;" horiz-adv-x="1069" d="M33 928v10q163 9 231 45v-639q0 -164 54 -236.5t176 -72.5q186 0 278 182v600q0 61 -15.5 81t-74.5 30v10q153 9 221 45v-788q0 -58 6 -91q9 -45 47 -45q36 0 74 35l4 -10q-20 -33 -35 -51q-15 -21 -46.5 -37t-65.5 -16q-115 0 -115 188q-114 -188 -330 -188 q-309 0 -309 354v483q0 56 -19.5 78.5t-80.5 32.5zM246 1315l78 82l276 -312l-22 -18z" />
<glyph unicode="&#xfa;" horiz-adv-x="1069" d="M33 928v10q163 9 231 45v-639q0 -164 54 -236.5t176 -72.5q186 0 278 182v600q0 61 -15.5 81t-74.5 30v10q153 9 221 45v-788q0 -58 6 -91q9 -45 47 -45q36 0 74 35l4 -10q-20 -33 -35 -51q-15 -21 -46.5 -37t-65.5 -16q-115 0 -115 188q-114 -188 -330 -188 q-309 0 -309 354v483q0 56 -19.5 78.5t-80.5 32.5zM422 1087l276 312l78 -82l-332 -248z" />
<glyph unicode="&#xfb;" horiz-adv-x="1069" d="M33 928v10q163 9 231 45v-639q0 -164 54 -236.5t176 -72.5q186 0 278 182v600q0 61 -15.5 81t-74.5 30v10q153 9 221 45v-788q0 -58 6 -91q9 -45 47 -45q36 0 74 35l4 -10q-20 -33 -35 -51q-15 -21 -46.5 -37t-65.5 -16q-115 0 -115 188q-114 -188 -330 -188 q-309 0 -309 354v483q0 56 -19.5 78.5t-80.5 32.5zM201 1085l272 342h55l273 -342h-56l-245 236l-244 -236h-55z" />
<glyph unicode="&#xfc;" horiz-adv-x="1069" d="M33 928v10q163 9 231 45v-639q0 -164 54 -236.5t176 -72.5q186 0 278 182v600q0 61 -15.5 81t-74.5 30v10q153 9 221 45v-788q0 -58 6 -91q9 -45 47 -45q36 0 74 35l4 -10q-20 -33 -35 -51q-15 -21 -46.5 -37t-65.5 -16q-115 0 -115 188q-114 -188 -330 -188 q-309 0 -309 354v483q0 56 -19.5 78.5t-80.5 32.5zM320.5 1160q2.5 30 22 47t46 21.5t53.5 -22.5q35 -28 20 -67.5t-52 -50t-70 17.5q-22 24 -19.5 54zM580 1157q0 29 22 50.5t51 21.5q26 0 49 -23t23 -49t-23 -49t-49 -23q-29 0 -51 21.5t-22 50.5z" />
<glyph unicode="&#xfd;" horiz-adv-x="1060" d="M-18 965v10q30 0 75 -2h111h106q41 2 70 2v-10q-52 -6 -73 -18t-21 -38q0 -20 16 -63l297 -668l254 533q60 132 60 176q0 69 -103 78v10q2 0 27.5 -0.5t64 -1t70.5 -0.5q30 0 86.5 1t58.5 1v-10q-58 -12 -100 -60q-41 -48 -123 -227l-393 -838q-74 -157 -74 -219 q0 -21 5.5 -34t19 -21t24 -11t33.5 -8v-10q-31 0 -82 2h-127q-30 0 -71 -1t-43 -1v10q71 6 118 56q46 49 135 237l82 172l-376 850q-19 41 -39.5 63t-37 28t-50.5 12zM500 1087l276 312l78 -82l-332 -248z" />
<glyph unicode="&#xfe;" horiz-adv-x="1103" d="M47 1507v11q153 9 221 45v-678q143 98 305 98q208 0 334 -147q129 -147 129 -361q0 -221 -145 -354t-344 -133q-151 0 -279 84v-340q0 -114 19 -146q20 -33 69 -41v-10q-153 8 -307 0v10q51 9 70 41q18 30 18 146v1665q0 61 -15.5 80.5t-74.5 29.5zM268 123 q103 -92 258 -92q116 0 219 84q55 45 86 138t31 220q0 193 -98 324q-94 135 -254 135q-129 0 -242 -101v-708z" />
<glyph unicode="&#xff;" horiz-adv-x="1060" d="M-18 965v10q30 0 75 -2h111h106q41 2 70 2v-10q-52 -6 -73 -18t-21 -38q0 -20 16 -63l297 -668l254 533q60 132 60 176q0 69 -103 78v10q2 0 27.5 -0.5t64 -1t70.5 -0.5q30 0 86.5 1t58.5 1v-10q-58 -12 -100 -60q-41 -48 -123 -227l-393 -838q-74 -157 -74 -219 q0 -21 5.5 -34t19 -21t24 -11t33.5 -8v-10q-31 0 -82 2h-127q-30 0 -71 -1t-43 -1v10q71 6 118 56q46 49 135 237l82 172l-376 850q-19 41 -39.5 63t-37 28t-50.5 12zM363.5 1160q2.5 30 22 47t46 21.5t53.5 -22.5q35 -28 20 -67.5t-52 -50t-70 17.5q-22 24 -19.5 54z M622 1149q-7 34 23 57q29 34 69 19.5t50.5 -50.5t-19.5 -67q-31 -39 -77 -15q-38 19 -46 56z" />
<glyph unicode="&#x152;" horiz-adv-x="2168" d="M78 729q0 196 88 371q87 172 262 286q174 113 399 113q159 0 301 -65t242 -183v41q0 117 -24 144q-22 31 -99 43v10q110 -4 262 -4q448 0 570 4q0 -1 1 -36t1 -50q0 -111 -13 -168h-10q0 134 -63 160q-67 28 -301 28q-126 0 -172 -12v-610h161q133 4 183 20 q39 20 58.5 50t25.5 87h10q-4 -168 -4 -190q0 -25 4 -209h-10q-6 64 -26 99t-56 57q-21 10 -76 16q-58 6 -109 6q-35 2 -161 2v-665q37 -13 174 -13h139q135 5 168 25q78 49 86 178h10q-1 -69 -6.5 -159.5t-5.5 -110.5q-190 6 -422 6q-298 0 -412 -4v10q73 12 95 47t22 140 v36q-218 -249 -559 -249q-325 0 -530 225q-203 226 -203 524zM268 735q0 -349 152 -530q150 -178 391 -178q245 0 401 178q156 179 156 518q0 362 -164 547q-163 184 -393 184q-218 0 -373 -168q-80 -83 -125 -226.5t-45 -324.5z" />
<glyph unicode="&#x153;" horiz-adv-x="1767" d="M68 479q0 220 141 361q140 143 354 143q126 0 230.5 -54.5t171.5 -152.5q57 97 150.5 152t205.5 55q158 0 266 -102q111 -102 111 -260h-643q-4 -54 -4 -70q0 -240 110 -371q115 -133 293 -133q144 0 250 100l8 -8q-129 -159 -340 -159q-273 0 -405 208 q-138 -200 -400 -200q-233 0 -366 131t-133 360zM238 461q0 -447 321 -447q97 0 165 40.5t101 115.5q58 132 58 324q0 462 -334 462q-311 0 -311 -495zM1059 662h471q-6 139 -62.5 216.5t-150.5 77.5t-164.5 -80.5t-93.5 -213.5z" />
<glyph unicode="&#x178;" horiz-adv-x="1181" d="M-47 1479v10q114 -4 205 -4q64 0 182 4v-10q-92 -12 -92 -66q0 -39 39 -113l344 -698l254 494q10 23 30 59q92 182 97 219q2 10 2 31q0 59 -84 74v10q118 -4 149 -4q42 0 156 4v-10q-60 -12 -88 -47q-30 -38 -123 -220l-76 -143l-282 -539v-337q0 -116 18 -146 q23 -30 84 -41v-10q-114 4 -178 4q-60 0 -178 -4v10q62 12 82 41t20 146v307l-412 825q-43 86 -69.5 114t-79.5 40zM437.5 1672q2.5 30 22 47t46 21.5t53.5 -22.5q35 -28 20 -67.5t-52 -50t-70 17.5q-22 24 -19.5 54zM696 1661q-7 34 23 57q29 34 69 19.5t50.5 -50.5 t-19.5 -67q-31 -39 -77 -15q-38 19 -46 56z" />
<glyph unicode="&#x2c6;" horiz-adv-x="804" d="M102 1085l273 342h55l272 -342h-55l-246 236l-243 -236h-56z" />
<glyph unicode="&#x2dc;" horiz-adv-x="796" d="M102 1085q12 75 59.5 122.5t112.5 47.5q53 0 142 -47t143 -47q87 0 117 103h18q-12 -71 -60 -125t-122 -54q-48 0 -139 48q-89 47 -142 47q-46 0 -67.5 -19t-40.5 -76h-21z" />
<glyph unicode="&#x2000;" horiz-adv-x="969" />
<glyph unicode="&#x2001;" horiz-adv-x="1939" />
<glyph unicode="&#x2002;" horiz-adv-x="969" />
<glyph unicode="&#x2003;" horiz-adv-x="1939" />
<glyph unicode="&#x2004;" horiz-adv-x="646" />
<glyph unicode="&#x2005;" horiz-adv-x="484" />
<glyph unicode="&#x2006;" horiz-adv-x="323" />
<glyph unicode="&#x2007;" horiz-adv-x="323" />
<glyph unicode="&#x2008;" horiz-adv-x="242" />
<glyph unicode="&#x2009;" horiz-adv-x="387" />
<glyph unicode="&#x200a;" horiz-adv-x="107" />
<glyph unicode="&#x2010;" horiz-adv-x="641" d="M117 586v61q180 -4 202 -4q25 0 205 4v-61q-45 2 -205 2q-157 0 -202 -2z" />
<glyph unicode="&#x2011;" horiz-adv-x="641" d="M117 586v61q180 -4 202 -4q25 0 205 4v-61q-45 2 -205 2q-157 0 -202 -2z" />
<glyph unicode="&#x2012;" horiz-adv-x="641" d="M117 586v61q180 -4 202 -4q25 0 205 4v-61q-45 2 -205 2q-157 0 -202 -2z" />
<glyph unicode="&#x2013;" horiz-adv-x="862" d="M117 586v61q278 -4 313 -4q37 0 315 4v-61q-70 2 -315 2q-243 0 -313 -2z" />
<glyph unicode="&#x2014;" horiz-adv-x="1320" d="M117 586v61q480 -4 542 -4q57 0 545 4v-61q-121 2 -545 2q-421 0 -542 -2z" />
<glyph unicode="&#x2018;" horiz-adv-x="292" d="M70 1270q0 73 34.5 133.5t96.5 95.5l8 -4q-82 -64 -82 -172q0 -15 4 -35q13 8 31 8q31 0 49 -20.5t18 -50.5q0 -35 -19.5 -56.5t-49.5 -21.5q-37 0 -63.5 33t-26.5 90z" />
<glyph unicode="&#x2019;" horiz-adv-x="292" d="M70 1409q0 35 19.5 56.5t49.5 21.5q37 0 63.5 -33t26.5 -90q0 -73 -34.5 -133.5t-96.5 -95.5l-8 4q82 64 82 172q0 15 -4 35q-15 -9 -31 -9q-31 0 -49 20.5t-18 51.5z" />
<glyph unicode="&#x201a;" horiz-adv-x="364" d="M102 104q0 35 20 56.5t50 21.5q37 0 63.5 -33t26.5 -90q0 -73 -34.5 -133.5t-96.5 -95.5l-8 4q82 64 82 172q0 15 -4 35q-13 -8 -31 -8q-32 0 -50 20t-18 51z" />
<glyph unicode="&#x201c;" horiz-adv-x="534" d="M70 1270q0 73 34.5 133.5t96.5 95.5l8 -4q-82 -64 -82 -172q0 -15 4 -35q13 8 31 8q31 0 49 -20.5t18 -50.5q0 -35 -19.5 -56.5t-49.5 -21.5q-37 0 -63.5 33t-26.5 90zM311 1270q0 73 34.5 133.5t96.5 95.5l9 -4q-82 -64 -82 -172q0 -15 4 -35q13 8 30 8q31 0 49.5 -20.5 t18.5 -50.5q0 -35 -20 -56.5t-50 -21.5q-37 0 -63.5 33t-26.5 90z" />
<glyph unicode="&#x201d;" horiz-adv-x="534" d="M70 1409q0 35 19.5 56.5t49.5 21.5q37 0 63.5 -33t26.5 -90q0 -73 -34.5 -133.5t-96.5 -95.5l-8 4q82 64 82 172q0 15 -4 35q-15 -9 -31 -9q-31 0 -49 20.5t-18 51.5zM311 1409q0 35 20 56.5t50 21.5q37 0 63.5 -33t26.5 -90q0 -73 -34.5 -133.5t-96.5 -95.5l-8 4 q82 64 82 172q0 15 -4 35q-15 -9 -31 -9q-31 0 -49.5 21t-18.5 51z" />
<glyph unicode="&#x201e;" horiz-adv-x="606" d="M102 104q0 35 20 56.5t50 21.5q37 0 63.5 -33t26.5 -90q0 -73 -34.5 -133.5t-96.5 -95.5l-8 4q82 64 82 172q0 15 -4 35q-13 -8 -31 -8q-32 0 -50 20t-18 51zM344 104q0 35 20 56.5t50 21.5q37 0 63.5 -33t26.5 -90q0 -73 -34.5 -133.5t-96.5 -95.5l-8 4q81 63 81 172 q0 15 -4 35q-13 -8 -30 -8q-32 0 -50 20t-18 51z" />
<glyph unicode="&#x2022;" horiz-adv-x="581" d="M88 743q0 90 56.5 150.5t136.5 60.5q92 0 151.5 -59.5t59.5 -151.5q0 -80 -60.5 -136t-150.5 -56q-78 0 -135.5 57t-57.5 135z" />
<glyph unicode="&#x2026;" horiz-adv-x="1075" d="M104 63q0 32 21.5 55t50.5 23q33 0 55.5 -21.5t22.5 -56.5q0 -29 -23 -50t-55 -21q-29 0 -50.5 21t-21.5 50zM463 63q0 32 21.5 55t50.5 23q35 0 56 -21.5t21 -56.5q0 -29 -22.5 -50t-54.5 -21q-29 0 -50.5 21t-21.5 50zM821 63q0 32 21.5 55t50.5 23q33 0 55.5 -21.5 t22.5 -56.5q0 -29 -23 -50t-55 -21q-29 0 -50.5 21t-21.5 50z" />
<glyph unicode="&#x202f;" horiz-adv-x="387" />
<glyph unicode="&#x2039;" horiz-adv-x="512" d="M55 461v55l342 272v-55l-235 -244l235 -245v-56z" />
<glyph unicode="&#x203a;" horiz-adv-x="512" d="M115 188v56l235 245l-235 244v55l342 -272v-55z" />
<glyph unicode="&#x205f;" horiz-adv-x="484" />
<glyph unicode="&#x20ac;" horiz-adv-x="1640" d="M74 578v47h131q-8 44 -8 110q0 50 10 125h-133v47h141q55 252 252 422t508 170q102 0 254 -26q65 -12 149 -37q1 0 70 -21l61 -16q-6 -79 -6 -195q0 -16 1 -47l1 -31h-10q-15 160 -156 242q-142 86 -356 86q-220 0 -385 -139q-160 -139 -203 -408h965v-47h-971 q-6 -64 -6 -133q0 -53 6 -102h971v-47h-965q44 -271 226 -410q186 -139 409 -139q166 0 301 75t180 226h11q-13 -96 -13 -219q-262 -131 -512 -131q-322 0 -528 170q-204 170 -256 428h-139z" />
<glyph unicode="&#x2122;" horiz-adv-x="1568" d="M109 1389l30 141h13q3 -24 32 -27q40 -4 172 -4q147 0 209 4q40 3 66 21l12 -4l-29 -123l-12 4q0 37 -24 43q-21 6 -156 6v-530q0 -54 8.5 -69t38.5 -20v-12q-3 0 -41 1t-51 1q-16 0 -53.5 -1t-40.5 -1v12q30 5 38.5 20t8.5 69v530q-110 0 -152 -10q-37 -9 -57 -51h-12z M608 819v12q38 11 55 37t29 93l105 567h8l221 -531l240 531h10l121 -633q6 -35 16 -45.5t43 -18.5v-12q-3 0 -41 1t-51 1q-15 0 -58.5 -1t-48.5 -1v12q31 4 40.5 9.5t9.5 17.5q0 2 -9 49l-77 402l-197 -480h-12l-195 476l-72 -355q-8 -47 -8 -67q0 -25 10 -35.5t39 -16.5 v-12q-3 0 -46.5 1t-57.5 1t-42.5 -1t-31.5 -1z" />
<glyph unicode="&#x25fc;" horiz-adv-x="972" d="M0 0v973h973v-973h-973z" />
</font>
</defs>
</svg>
